<?xml version="1.0" encoding="UTF-8" standalone="no"?>
<svg
   height="28"
   width="128"
   version="1.1"
   id="svg39546"
   sodipodi:docname="2D.svg"
   inkscape:version="1.2.1 (9c6d41e410, 2022-07-14)"
   xmlns:inkscape="http://www.inkscape.org/namespaces/inkscape"
   xmlns:sodipodi="http://sodipodi.sourceforge.net/DTD/sodipodi-0.dtd"
   xmlns="http://www.w3.org/2000/svg"
   xmlns:svg="http://www.w3.org/2000/svg"
   xmlns:vectornator="http://vectornator.io">
  <sodipodi:namedview
     id="namedview39548"
     pagecolor="#ffffff"
     bordercolor="#000000"
     borderopacity="0.25"
     inkscape:showpageshadow="2"
     inkscape:pageopacity="0.0"
     inkscape:pagecheckerboard="0"
     inkscape:deskcolor="#d1d1d1"
     showgrid="false"
     inkscape:zoom="8"
     inkscape:cx="79.4375"
     inkscape:cy="-10"
     inkscape:window-width="1920"
     inkscape:window-height="1057"
     inkscape:window-x="1912"
     inkscape:window-y="-8"
     inkscape:window-maximized="1"
     inkscape:current-layer="g39542" />
  <defs
     id="defs39534">
    <linearGradient
       gradientTransform="translate(-31.958,-992.841)"
       gradientUnits="userSpaceOnUse"
       id="b"
       x1="21.136"
       x2="1276.38"
       y1="1100.76"
       y2="1100.76">
      <stop
         offset="0.01"
         id="stop39517"
         style="stop-color:#000000;stop-opacity:0;" />
      <stop
         offset="0.44699535"
         stop-color="#717171"
         id="stop39519"
         style="stop-color:#292929;stop-opacity:1;" />
      <stop
         offset="0.96948302"
         stop-color="#666"
         id="stop39521"
         style="stop-color:#292929;stop-opacity:1;" />
      <stop
         offset="1"
         id="stop39523"
         style="stop-color:#000000;stop-opacity:0;" />
    </linearGradient>
    <linearGradient
       gradientTransform="matrix(1.09914,0,0,1.16369,375.026,-1198.37)"
       gradientUnits="userSpaceOnUse"
       id="c"
       x1="297.03192"
       x2="622.64893"
       y1="1161.142"
       y2="1162.7271">
      <stop
         offset="0"
         stop-color="#f33"
         id="stop39526" />
      <stop
         offset="1"
         id="stop39528" />
    </linearGradient>
    <clipPath
       id="a">
      <path
         d="M 0,0 H 1244.42 V 310.68 H 0 Z"
         id="path39531" />
    </clipPath>
  </defs>
  <g
     clip-path="url(#a)"
     vectornator:layerName="Ebene 1"
     style="clip-rule:evenodd;fill-rule:nonzero;stroke-linecap:round;stroke-linejoin:round"
     transform="matrix(0.10285916,0,0,0.11587486,0,-4)"
     id="g39544">
    <g
       vectornator:layerName="Gruppieren 3"
       stroke-linejoin="round"
       id="g39542">
      <path
         d="m 1244.42,34.519999 c -0.41,153.098001 0.42,88.541991 0,241.639991 -14.4443,-2.79258 -1026.01203,-1.80125 -1040.25734,0 C 70.29943,234.0729 16.826977,133.82637 0,34.519999 c 0,0 823.872,1.871 1244.42,0 z"
         fill="url(#b)"
         stroke="#000000"
         stroke-width="10"
         vectornator:layerName="Rechteck"
         style="fill:url(#b);stroke-width:9.15976;stroke-dasharray:none"
         id="path39536"
         sodipodi:nodetypes="ccccc" />
      <path
         d="m 700.28982,67.159 h 355.68798 v 180 H 700.28982 Z"
         fill="url(#c)"
         stroke="#ffffff"
         stroke-width="10.718"
         vectornator:layerName="Kurve 2"
         style="fill:url(#c);stroke-width:9.15976;stroke-dasharray:none"
         id="path39538"
         sodipodi:nodetypes="ccccc" />
      <path
         d="m 806.77282,137.228 v 0.281 h 15.756 v -0.337 c 0,-7.484 5.402,-12.661 13.28,-12.661 7.427,0 12.716,4.614 12.716,11.142 0,5.289 -2.869,9.509 -14.292,20.651 l -26.503,25.94 v 11.873 h 58.577 v -14.124 h -35.563 v -1.013 l 15.531,-14.799 c 14.067,-13.223 18.85,-20.82 18.85,-29.654 0,-13.955 -11.817,-23.689 -28.754,-23.689 -17.556,0 -29.598,10.691 -29.598,26.39 z m 76.752,-24.365 v 81.254 h 31.961 c 24.309,0 38.095,-14.799 38.095,-41.19 0,-25.434 -13.955,-40.064 -38.095,-40.064 z m 16.994,14.518 h 12.266 c 14.743,0 23.465,9.397 23.465,25.828 0,17.162 -8.441,26.39 -23.465,26.39 h -12.266 z"
         fill="#ffffff"
         stroke="#ffffff"
         stroke-width="5.5"
         vectornator:layerName="Text 4"
         id="path39540"
         style="stroke:none;stroke-width:9.15976;stroke-dasharray:none"
         sodipodi:nodetypes="sccsssccccccccsssccsssccssscc" />
    </g>
  </g>
</svg>
