<?xml version="1.0" encoding="UTF-8" standalone="no"?>
<svg
   height="28"
   width="116"
   version="1.1"
   id="svg44550"
   sodipodi:docname="3D.svg"
   inkscape:version="1.2.1 (9c6d41e410, 2022-07-14)"
   xmlns:inkscape="http://www.inkscape.org/namespaces/inkscape"
   xmlns:sodipodi="http://sodipodi.sourceforge.net/DTD/sodipodi-0.dtd"
   xmlns="http://www.w3.org/2000/svg"
   xmlns:svg="http://www.w3.org/2000/svg"
   xmlns:vectornator="http://vectornator.io">
  <sodipodi:namedview
     id="namedview44552"
     pagecolor="#ffffff"
     bordercolor="#000000"
     borderopacity="0.25"
     inkscape:showpageshadow="2"
     inkscape:pageopacity="0.0"
     inkscape:pagecheckerboard="0"
     inkscape:deskcolor="#d1d1d1"
     showgrid="false"
     inkscape:zoom="4"
     inkscape:cx="60.625"
     inkscape:cy="29.25"
     inkscape:window-width="1920"
     inkscape:window-height="1057"
     inkscape:window-x="1912"
     inkscape:window-y="-8"
     inkscape:window-maximized="1"
     inkscape:current-layer="g44548" />
  <defs
     id="defs44528">
    <linearGradient
       gradientTransform="matrix(1.2136,8e-5,-8e-5,1.24612,-1114.31,-1295.25)"
       gradientUnits="userSpaceOnUse"
       id="e"
       x1="1263.9399"
       x2="1353.6899"
       y1="1107.39"
       y2="1107.39">
      <stop
         offset="0"
         stop-color="#f33"
         id="stop44479" />
      <stop
         offset="1"
         id="stop44481" />
      <stop
         offset="1"
         id="stop44483" />
    </linearGradient>
    <linearGradient
       gradientTransform="matrix(0.86908515,5.786289e-5,-5.3963686e-5,0.96438145,-1105.7495,-989.45541)"
       gradientUnits="userSpaceOnUse"
       id="b"
       x1="1277.3101"
       x2="2564.6172"
       y1="1213.02"
       y2="1217.3833">
      <stop
         offset="0"
         id="stop44486"
         style="stop-color:#000000;stop-opacity:0;" />
      <stop
         offset="0.03725103"
         stop-color="#716d6d"
         id="stop44488"
         style="stop-color:#292929;stop-opacity:1;" />
      <stop
         offset="0.50558108"
         stop-color="#5d5c5c"
         id="stop44490"
         style="stop-color:#1e1e1e;stop-opacity:1;" />
      <stop
         offset="0.96201271"
         stop-color="#4c4c4c"
         id="stop44492"
         style="stop-color:#292929;stop-opacity:1;" />
      <stop
         offset="1"
         id="stop44494"
         style="stop-color:#000000;stop-opacity:0;" />
    </linearGradient>
    <linearGradient
       gradientTransform="matrix(1.2136,8e-5,-8e-5,1.24612,-1114.31,-1295.25)"
       gradientUnits="userSpaceOnUse"
       id="c"
       x1="1354"
       x2="1603.77"
       y1="1146.02"
       y2="1146.02">
      <stop
         offset="0"
         stop-color="#f33"
         id="stop44497" />
      <stop
         offset="1"
         id="stop44499" />
      <stop
         offset="1"
         id="stop44501" />
    </linearGradient>
    <linearGradient
       gradientTransform="matrix(1.2136,8e-5,-8e-5,1.24612,-1114.31,-1295.25)"
       gradientUnits="userSpaceOnUse"
       id="d"
       x1="1263.28"
       x2="1514.22"
       y1="1179.41"
       y2="1179.41">
      <stop
         offset="0"
         stop-color="#f33"
         id="stop44504" />
      <stop
         offset="1"
         id="stop44506" />
      <stop
         offset="1"
         id="stop44508" />
    </linearGradient>
    <linearGradient
       gradientTransform="matrix(1.2136,8e-5,-8e-5,1.24612,-1114.31,-1295.25)"
       gradientUnits="userSpaceOnUse"
       id="f"
       x1="1511.95"
       x2="1600.3199"
       y1="1108.85"
       y2="1108.85">
      <stop
         offset="0"
         stop-color="#f33"
         id="stop44511" />
      <stop
         offset="1"
         id="stop44513" />
      <stop
         offset="1"
         id="stop44515" />
    </linearGradient>
    <linearGradient
       gradientTransform="matrix(1.2136,8e-5,-8e-5,1.24612,-1114.31,-1295.25)"
       gradientUnits="userSpaceOnUse"
       id="g"
       x1="1512.54"
       x2="1603.27"
       y1="1218.08"
       y2="1218.08">
      <stop
         offset="0"
         stop-color="#f33"
         id="stop44518" />
      <stop
         offset="1"
         id="stop44520" />
      <stop
         offset="1"
         id="stop44522" />
    </linearGradient>
    <clipPath
       id="a">
      <path
         d="M 0,0 H 1244.42 V 310.68 H 0 Z"
         id="path44525" />
    </clipPath>
  </defs>
  <g
     clip-path="url(#a)"
     vectornator:layerName="Ebene 2"
     style="clip-rule:evenodd;fill-rule:nonzero;stroke-linecap:round;stroke-linejoin:round"
     transform="scale(0.10285916,0.11587486)"
     stroke-linejoin="round"
     id="g44548">
    <path
       d="M 4.2743389,4.2653409 1123.4902,4.341527 1122.6449,237.37464 4.2653449,237.33703 Z"
       fill="url(#b)"
       stroke="#000000"
       stroke-width="10"
       vectornator:layerName="Kurve"
       style="fill:url(#b);stroke:#000000;stroke-width:8.53071;stroke-dasharray:none;stroke-opacity:1"
       id="path44530"
       sodipodi:nodetypes="ccccc" />
    <g
       vectornator:layerName="Gruppieren"
       stroke="#ffffff"
       id="g44544"
       transform="translate(-58.332189,-34.519998)">
      <path
         d="m 528.825,64.162 303.115,0.02 -0.008,137.517 -303.116,-0.019 z"
         fill="url(#c)"
         stroke-width="10.718"
         style="fill:url(#c);stroke-width:9.15976;stroke-dasharray:none"
         id="path44532" />
      <path
         d="m 611.426,130.626 h 9.615 c 8.701,0.001 14.018,4.191 14.017,10.958 0,6.607 -5.64,11.172 -13.75,11.171 -8.325,0 -13.857,-4.136 -14.34,-10.689 l -15.523,-0.001 c 0.697,14.609 12.406,24.171 29.701,24.172 17.671,0.001 30.454,-9.828 30.455,-23.416 10e-4,-10.205 -6.659,-17.296 -17.293,-18.478 v -0.967 c 8.647,-1.772 14.287,-8.754 14.288,-17.724 10e-4,-12.192 -11.439,-20.894 -27.338,-20.895 -16.919,0 -27.822,9.237 -28.361,23.9 l 14.986,0.001 c 0.43,-6.714 5.425,-10.957 12.945,-10.957 7.573,0.001 12.407,3.976 12.406,10.206 0,6.338 -4.995,10.635 -12.354,10.634 h -9.453 z m 56.238,-43.932 -0.004,77.558 30.507,0.002 c 23.203,0.002 36.364,-14.123 36.365,-39.314 0.002,-24.277 -13.318,-38.243 -36.36,-38.244 z m 16.22,13.858 11.709,10e-4 c 14.073,0.001 22.397,8.971 22.396,24.655 -10e-4,16.381 -8.058,25.19 -22.399,25.189 l -11.709,-0.001 z"
         fill="#ffffff"
         stroke-width="5.5"
         vectornator:layerName="Text 1"
         id="path44534"
         style="stroke:none;stroke-width:9.15976;stroke-dasharray:none" />
      <path
         d="m 418.721,106.085 304.545,0.019 -0.008,136.883 -304.545,-0.02 z"
         fill="url(#d)"
         stroke-width="10.718"
         style="fill:url(#d);stroke-width:9.15976;stroke-dasharray:none"
         id="path44536" />
      <path
         d="M 419.52,105.342 528.441,64.234"
         fill="url(#e)"
         stroke-width="10.718"
         style="fill:url(#e);stroke-width:9.15976;stroke-dasharray:none"
         id="path44538" />
      <path
         d="M 720.511,107.585 827.755,65.662"
         fill="url(#f)"
         stroke-width="10.718"
         style="fill:url(#f);stroke-width:9.15976;stroke-dasharray:none"
         id="path44540" />
      <path
         d="M 724.2246,243.02981 831.321,201.298"
         fill="url(#g)"
         stroke-width="10.718"
         style="fill:url(#g);stroke-width:9.15976;stroke-dasharray:none"
         id="path44542"
         sodipodi:nodetypes="cc" />
    </g>
    <path
       d="m 457.73282,140.287 h 9.615 c 8.701,0.001 14.018,4.191 14.018,10.958 -10e-4,6.607 -5.641,11.172 -13.751,11.171 -8.325,0 -13.857,-4.137 -14.34,-10.689 l -15.523,-0.001 c 0.698,14.609 12.406,24.17 29.701,24.172 17.671,0.001 30.455,-9.828 30.455,-23.416 10e-4,-10.206 -6.659,-17.296 -17.293,-18.478 v -0.967 c 8.647,-1.772 14.287,-8.754 14.288,-17.724 10e-4,-12.192 -11.439,-20.893999 -27.338,-20.894999 -16.918,-0.001 -27.822,9.236999 -28.36,23.899999 l 14.985,0.001 c 0.43,-6.714 5.425,-10.957 12.945,-10.957 7.573,0.001 12.407,3.976 12.407,10.206 -10e-4,6.338 -4.996,10.635 -12.355,10.634 h -9.453 z m 56.239,-43.931999 -0.005,77.557999 30.507,0.002 c 23.204,0.002 36.364,-14.124 36.365,-39.314 0.002,-24.277 -13.318,-38.242999 -36.36,-38.243999 z m 16.219,13.857999 11.709,0.001 c 14.073,0.001 22.397,8.971 22.396,24.655 -0.001,16.381 -8.058,25.189 -22.399,25.189 l -11.709,-0.001 z"
       fill="#ffffff"
       stroke="#ffffff"
       stroke-width="5.5"
       vectornator:layerName="Text 3"
       id="path44546"
       style="stroke:none;stroke-width:9.15976;stroke-dasharray:none" />
  </g>
</svg>
