<?xml version="1.0" encoding="UTF-8" standalone="no"?>
<svg
   height="64"
   viewBox="0 0 64 64"
   width="64"
   version="1.1"
   id="svg27"
   sodipodi:docname="GodotFile.svg"
   inkscape:version="1.2.1 (9c6d41e410, 2022-07-14)"
   xmlns:inkscape="http://www.inkscape.org/namespaces/inkscape"
   xmlns:sodipodi="http://sodipodi.sourceforge.net/DTD/sodipodi-0.dtd"
   xmlns:xlink="http://www.w3.org/1999/xlink"
   xmlns="http://www.w3.org/2000/svg"
   xmlns:svg="http://www.w3.org/2000/svg">
  <defs
     id="defs31">
    <linearGradient
       xlink:href="#b"
       id="c"
       x1="-92.844002"
       y1="209.91"
       x2="290.871"
       y2="209.91"
       gradientUnits="userSpaceOnUse"
       gradientTransform="matrix(0.05097433,0,0,0.05097433,17.063132,27.028607)" />
    <linearGradient
       id="b">
            <stop
   style="stop-color:#000;stop-opacity:1"
   offset="0"
   id="stop2103" />

            <stop
   style="stop-color:#000;stop-opacity:0"
   offset="1"
   id="stop2105" />

        </linearGradient>
    <linearGradient
       xlink:href="#a-1"
       id="d"
       x1="290.625"
       y1="209.91"
       x2="674.604"
       y2="209.91"
       gradientUnits="userSpaceOnUse"
       gradientTransform="matrix(0.05097433,0,0,0.05097433,17.063132,27.028607)" />
    <linearGradient
       id="a-1">
            <stop
   style="stop-color:#000;stop-opacity:0"
   offset="0"
   id="stop2098" />

            <stop
   style="stop-color:#000;stop-opacity:1"
   offset="1"
   id="stop2100" />

        </linearGradient>
  </defs>
  <sodipodi:namedview
     id="namedview29"
     pagecolor="#ffffff"
     bordercolor="#000000"
     borderopacity="0.25"
     inkscape:showpageshadow="2"
     inkscape:pageopacity="0.0"
     inkscape:pagecheckerboard="0"
     inkscape:deskcolor="#d1d1d1"
     showgrid="false"
     inkscape:zoom="6.8515625"
     inkscape:cx="6.4218928"
     inkscape:cy="50.207526"
     inkscape:window-width="1920"
     inkscape:window-height="1057"
     inkscape:window-x="-8"
     inkscape:window-y="-8"
     inkscape:window-maximized="1"
     inkscape:current-layer="svg27" />
  <clipPath
     id="a">
    <path
       clip-rule="evenodd"
       d="m0 0h16v16h-16z"
       id="path2" />
  </clipPath>
  <path
     d="m 31.890086,38.281191 -9.107584,-7.11199 v 10.652616 c 0,1.676749 -0.01147,4.965817 -0.01672,6.331522 -1.325945,0.01667 -10.494596,1.92056 -10.435007,2.107788 0.236776,-0.0043 1.521176,-2.492186 1.521176,-2.492186 l 4.884259,-1.666198 v -20.40895 c 0,-0.298505 0.20196,-0.497662 0.303501,-0.497662 4.347601,3.583954 8.501244,6.993678 12.848794,10.57753 z"
     style="font-variation-settings:normal;fill:url(#c);fill-opacity:1;stroke-width:0.0695213;stroke-linecap:butt;stroke-linejoin:miter;stroke-miterlimit:4;stroke-dasharray:none;stroke-dashoffset:0;stroke-opacity:1;stop-color:#000000"
     id="path2112" />
  <path
     d="m 31.877546,38.281191 9.121041,-7.11199 v 10.652616 c 0,1.676749 0.01147,4.965817 0.01672,6.331522 1.325945,0.01667 10.494596,1.92056 10.435007,2.107788 -0.236776,-0.0043 -1.521176,-2.492186 -1.521176,-2.492186 l -4.884259,-1.666198 v -20.40895 c 0,-0.298505 -0.20196,-0.497662 -0.303552,-0.497662 -4.347601,3.583954 -8.514702,6.993678 -12.862251,10.57753 z"
     style="font-variation-settings:normal;fill:url(#d);fill-opacity:1;stroke-width:0.0695213;stroke-linecap:butt;stroke-linejoin:miter;stroke-miterlimit:4;stroke-dasharray:none;stroke-dashoffset:0;stroke-opacity:1;stop-color:#000000"
     id="path2114" />
</svg>
