<svg width="16" height="16" viewBox="0 0 4.233 4.233" xml:space="preserve" xmlns="http://www.w3.org/2000/svg"><path d="m-86.867-31.95-2.783-2.174v3.256c0 .512-.003 1.517-.005 1.935-.405.005-3.207.587-3.189.644.073-.002.465-.762.465-.762l1.493-.509v-6.237c0-.091.061-.152.092-.152l3.927 3.232z" style="font-variation-settings:normal;opacity:1;fill:#000;fill-opacity:1;stroke-width:.0212451;stroke-linecap:butt;stroke-linejoin:miter;stroke-miterlimit:4;stroke-dasharray:none;stroke-dashoffset:0;stroke-opacity:1;stop-color:#000;stop-opacity:1" transform="matrix(.35278 0 0 .35278 32.766 13.23)"/><path d="m-86.87-31.95 2.787-2.174v3.256c0 .512.003 1.517.005 1.935.405.005 3.207.587 3.189.644-.073-.002-.465-.762-.465-.762l-1.493-.509v-6.237c0-.091-.061-.152-.092-.152-1.329 1.095-2.602 2.137-3.931 3.232z" style="font-variation-settings:normal;opacity:1;vector-effect:none;fill:#000;fill-opacity:1;stroke-width:.0212451;stroke-linecap:butt;stroke-linejoin:miter;stroke-miterlimit:4;stroke-dasharray:none;stroke-dashoffset:0;stroke-opacity:1;-inkscape-stroke:none;stop-color:#000;stop-opacity:1" transform="matrix(.35278 0 0 .35278 32.766 13.23)"/><text xml:space="preserve" style="font-size:.81521px;font-variation-settings:normal;letter-spacing:.0021836px;word-spacing:.00283866px;opacity:1;vector-effect:none;fill:#000;fill-opacity:1;stroke:#a6a6a6;stroke-width:.0291145;stroke-linecap:butt;stroke-linejoin:miter;stroke-miterlimit:4;stroke-dasharray:none;stroke-dashoffset:0;stroke-opacity:1;-inkscape-stroke:none;stop-color:#000;stop-opacity:1" x="-83.045" y="-30.609" transform="matrix(.39371 0 0 .3161 32.766 13.23)"><tspan style="font-style:normal;font-variant:normal;font-weight:400;font-stretch:normal;font-size:.81521px;font-family:'Lucida Bright';-inkscape-font-specification:'Lucida Bright';stroke-width:.0291149" x="-83.045" y="-30.609">METRO    GAYA    SYSTEM</tspan></text></svg>