<svg stroke-miterlimit="10" style="fill-rule:nonzero;clip-rule:evenodd;stroke-linecap:round;stroke-linejoin:round" viewBox="0 0 100 100" xml:space="preserve" xmlns="http://www.w3.org/2000/svg"><defs><linearGradient gradientTransform="translate(-8.671 2.281)" gradientUnits="userSpaceOnUse" id="b" x1="19.286" x2="27.075" y1="73.887" y2="92.584"><stop offset=".083"/><stop offset=".267" stop-color="#2f2f2f"/><stop offset="1" stop-color="#fff"/></linearGradient><linearGradient gradientTransform="matrix(-1 0 0 1 99.976 0)" gradientUnits="userSpaceOnUse" id="c" x1="16.566" x2="50" y1="46.885" y2="46.885"><stop offset=".083"/><stop offset="1" stop-color="#fff"/></linearGradient><linearGradient gradientTransform="matrix(-1 0 0 1 108.647 2.281)" gradientUnits="userSpaceOnUse" id="d" x1="20.109" x2="27.514" y1="73.803" y2="90.954"><stop offset=".083"/><stop offset=".267" stop-color="#2f2f2f"/><stop offset="1" stop-color="#fff"/></linearGradient><linearGradient gradientUnits="userSpaceOnUse" id="e" x1="16.566" x2="50" y1="46.885" y2="46.885"><stop offset=".006"/><stop offset=".083"/><stop offset="1" stop-color="#fff"/></linearGradient><linearGradient gradientUnits="userSpaceOnUse" id="f" x1=".488" x2="3.174" y1="82.959" y2="77.1"><stop offset="0" stop-color="#fff"/><stop offset=".108" stop-color="#686868"/><stop offset=".25" stop-color="#2d2d2d"/><stop offset=".865"/></linearGradient><linearGradient gradientTransform="matrix(-1 0 0 1 99.993 -.005)" gradientUnits="userSpaceOnUse" id="g" x1=".488" x2="3.174" y1="82.959" y2="77.1"><stop offset="0" stop-color="#fff"/><stop offset=".108" stop-color="#686868"/><stop offset=".25" stop-color="#2d2d2d"/><stop offset=".865"/></linearGradient><linearGradient gradientUnits="userSpaceOnUse" id="h" x1="23.753" x2="-4.417" y1="78.272" y2="84.402"><stop offset=".083"/><stop offset="1" stop-color="#fff"/></linearGradient><linearGradient gradientTransform="matrix(-1 0 0 1 99.993 -.005)" gradientUnits="userSpaceOnUse" id="i" x1="25.475" x2="-1.12" y1="78.019" y2="83.349"><stop offset=".083"/><stop offset="1" stop-color="#fff"/></linearGradient><linearGradient gradientUnits="userSpaceOnUse" id="j" x1="15.788" x2="18.62" y1="44.59" y2="44.564"><stop offset="0" stop-color="#fff"/><stop offset=".154"/></linearGradient><linearGradient gradientTransform="matrix(-1 0 0 1 99.888 0)" gradientUnits="userSpaceOnUse" id="k" x1="15.788" x2="18.62" y1="44.59" y2="44.564"><stop offset="0" stop-color="#fff"/><stop offset=".154"/></linearGradient></defs><clipPath id="a"><path d="M0 0h100v100H0z"/></clipPath><g clip-path="url(#a)"><path d="M50.295 53.06 26.832 34.37M49.672 53.063 73 34.453" fill="none" stroke="#000" stroke-linejoin="round"/><path d="m-.081 83.238 16.697-10.343 10.922 4.534-27.62 5.81z" fill="url(#b)"/><path d="M83.935 17.419s-.122-1.652-1.685-1.078c-1.566 1.372-32.274 26.838-32.274 26.838v9.343l22.711-17.979-.2 42.886L83.41 72.9l.526-55.481z" fill="url(#c)"/><path d="M100.057 83.239 83.359 72.895 72.438 77.43l27.619 5.809z" fill="url(#d)"/><path d="M99.907 83.157s-3.328-2.726-2.953-6.31c-4.015-1.196-13.74-4-13.74-4l16.693 10.31z"/><path d="M16.04 17.419s.123-1.652 1.685-1.078C19.291 17.713 50 43.179 50 43.179v9.343L27.288 34.543l.2 42.885L16.566 72.9l-.526-55.481z" fill="url(#e)"/><path d="M.069 83.157s3.328-2.726 2.952-6.31c4.016-1.196 13.74-4 13.74-4L.07 83.157z"/><path d="M2.835 76.871s.245-.047.308-.066C3.387 80.404.396 82.97.027 83.187c0-.005-.058-.003-.052.003 3.398-2.983 2.86-6.319 2.86-6.319z" fill="url(#f)"/><path d="M97.158 76.867s-.245-.048-.308-.067c-.244 3.6 2.747 6.167 3.116 6.383 0-.006.058-.004.052.003-3.398-2.983-2.86-6.32-2.86-6.32z" fill="url(#g)"/><path d="m.014 83.218 27.479-5.836-.032.499-27.464 5.376.017-.04z" fill="url(#h)"/><path d="M99.98 83.213 72.5 77.377l.032.5 27.464 5.375-.017-.039z" fill="url(#i)"/><path d="M15.788 17.496s.155-1.724 1.856-1.204c.187.057-1.593 1.176-1.593 1.176l.547 55.51-.244.008-.566-55.49z" fill="url(#j)"/><path d="M84.1 17.496s-.155-1.724-1.855-1.204c-.188.057 1.592 1.176 1.592 1.176l-.546 55.51.244.008.565-55.49z" fill="url(#k)"/></g></svg>