<?xml version="1.0" encoding="UTF-8" standalone="no"?>
<svg
   height="16"
   viewBox="0 0 16 16"
   width="16"
   version="1.1"
   id="svg5978"
   sodipodi:docname="GodotMonochrome.svg"
   inkscape:version="1.2.1 (9c6d41e410, 2022-07-14)"
   xmlns:inkscape="http://www.inkscape.org/namespaces/inkscape"
   xmlns:sodipodi="http://sodipodi.sourceforge.net/DTD/sodipodi-0.dtd"
   xmlns:xlink="http://www.w3.org/1999/xlink"
   xmlns="http://www.w3.org/2000/svg"
   xmlns:svg="http://www.w3.org/2000/svg">
  <defs
     id="defs5982">
    <linearGradient
       xlink:href="#b"
       id="c"
       x1="-92.844002"
       y1="209.91"
       x2="290.871"
       y2="209.91"
       gradientUnits="userSpaceOnUse"
       gradientTransform="matrix(0.0208105,0,0,0.02407771,2.0142511,3.2194661)" />
    <linearGradient
       id="b">
            <stop
   style="stop-color:#000;stop-opacity:1"
   offset="0"
   id="stop2103" />

            <stop
   style="stop-color:#000;stop-opacity:0"
   offset="1"
   id="stop2105" />

        </linearGradient>
    <linearGradient
       xlink:href="#a"
       id="d"
       x1="290.625"
       y1="209.91"
       x2="674.604"
       y2="209.91"
       gradientUnits="userSpaceOnUse"
       gradientTransform="matrix(0.0208105,0,0,0.02407771,2.0142511,3.2194661)" />
    <linearGradient
       id="a">
            <stop
   style="stop-color:#000;stop-opacity:0"
   offset="0"
   id="stop2098" />

            <stop
   style="stop-color:#000;stop-opacity:1"
   offset="1"
   id="stop2100" />

        </linearGradient>
  </defs>
  <sodipodi:namedview
     id="namedview5980"
     pagecolor="#ffffff"
     bordercolor="#000000"
     borderopacity="0.25"
     inkscape:showpageshadow="2"
     inkscape:pageopacity="0.0"
     inkscape:pagecheckerboard="0"
     inkscape:deskcolor="#d1d1d1"
     showgrid="false"
     inkscape:zoom="13.703125"
     inkscape:cx="12.259977"
     inkscape:cy="13.208666"
     inkscape:window-width="1920"
     inkscape:window-height="1057"
     inkscape:window-x="-8"
     inkscape:window-y="-8"
     inkscape:window-maximized="1"
     inkscape:current-layer="svg5978" />
  <path
     d="M 8.0674208,8.5346205 4.3492097,5.1752745 v 5.0317595 c 0,0.792012 -0.00468,2.345602 -0.00682,2.990691 -0.5413226,0.0078 -4.28446472,0.907177 -4.26013722,0.995613 0.096665,-0.002 0.6210267,-1.177182 0.6210267,-1.177182 L 2.6972935,12.229128 V 2.5889675 c 0,-0.140999 0.082451,-0.2350706 0.1239056,-0.2350706 1.7749271,1.6928796 3.4706703,3.3034615 5.2455766,4.9962929 z"
     style="font-variation-settings:normal;fill:url(#c);fill-opacity:1;stroke-width:0.0305291;stroke-linecap:butt;stroke-linejoin:miter;stroke-miterlimit:4;stroke-dasharray:none;stroke-dashoffset:0;stroke-opacity:1;stop-color:#000000"
     id="path2112" />
  <path
     d="m 8.0623014,8.5346205 3.7237046,-3.359346 v 5.0317595 c 0,0.792012 0.0047,2.345602 0.0069,2.990691 0.541322,0.0078 4.284465,0.907177 4.260137,0.995613 -0.09667,-0.002 -0.621027,-1.177182 -0.621027,-1.177182 L 13.437923,12.229128 V 2.5889675 c 0,-0.140999 -0.08245,-0.2350706 -0.123926,-0.2350706 C 11.53907,4.0467765 9.8378328,5.6573584 8.0629258,7.3501898 Z"
     style="font-variation-settings:normal;fill:url(#d);fill-opacity:1;stroke-width:0.0305291;stroke-linecap:butt;stroke-linejoin:miter;stroke-miterlimit:4;stroke-dasharray:none;stroke-dashoffset:0;stroke-opacity:1;stop-color:#000000"
     id="path2114" />
</svg>
