<?xml version="1.0" encoding="UTF-8"?>
<svg width="187" height="69" version="1.1" viewBox="0 0 187 69" xmlns="http://www.w3.org/2000/svg" xmlns:xlink="http://www.w3.org/1999/xlink">
 <defs>
  <linearGradient id="c" x1="-92.844" x2="290.87" y1="209.91" y2="209.91" gradientTransform="matrix(.11079 0 0 .12448 10.295 10.153)" gradientUnits="userSpaceOnUse">
   <stop offset="0"/>
   <stop stop-opacity="0" offset="1"/>
  </linearGradient>
  <linearGradient id="d" x1="290.62" x2="674.6" y1="209.91" y2="209.91" gradientTransform="matrix(.11079 0 0 .12448 10.295 10.153)" gradientUnits="userSpaceOnUse">
   <stop stop-opacity="0" offset="0"/>
   <stop offset="1"/>
  </linearGradient>
 </defs>
 <path d="m91.912 19.51c-3.5233 0-6.278 1.1097-8.2676 3.3281-1.9911 2.2193-2.9844 5.1004-2.9844 8.6465 0 4.1636 1.0165 7.3207 3.0508 9.4707 2.0379 2.1497 4.7123 3.2227 8.0293 3.2227 1.7838 0 3.3686-.15384 4.752-.46289 1.3848-.30784 2.3038-.62367 2.7617-.94336l.13867-10.736c0-.62388-1.6471-.90785-3.4941-.93945-1.847-.02857-3.9609.35742-3.9609.35742v3.6055h2.125l-.023438 1.6055c0 .59532-.59062.89453-1.7676.89453-1.1785 0-2.2182-.4989-3.1211-1.4941-.90498-.99645-1.3555-2.4517-1.3555-4.3711 0-1.9233.43964-3.3428 1.3203-4.2578.87885-.9141 2.0322-1.3711 3.4492-1.3711.59532 0 1.2107.095008 1.8516.29102.64121.19418 1.0686.37639 1.2871.54688.21667.17534.42435.25781.61914.25781.19388 0 .50715-.22698.94141-.68555.43487-.45735.82427-1.1501 1.168-2.0742.34218-.92899.51367-1.6414.51367-2.1465 0-.50111-.011023-.84501-.033203-1.0273-.48045-.52573-1.3668-.94394-2.6602-1.2539-1.2909-.30906-2.7387-.46289-4.3398-.46289zm21.049 0c-3.2367 0-5.8788 1.0413-7.9258 3.1211-2.0464 2.0826-3.0703 5.1404-3.0703 9.1797 0 4.0369 1.0128 7.1085 3.0352 9.2129 2.0251 2.1026 4.6444 3.1543 7.8574 3.1543 3.2145 0 5.8383-1.0111 7.875-3.0332 2.0367-2.0263 3.0527-5.1142 3.0527-9.2656 0-4.1484-.99433-7.2508-2.9863-9.2969-1.9884-2.05-4.6018-3.0723-7.8379-3.0723zm45.504 0c-3.2379 0-5.8792 1.0413-7.9277 3.1211-2.0461 2.0826-3.0684 5.1404-3.0684 9.1797 0 4.0369 1.0104 7.1085 3.0352 9.2129 2.0233 2.1026 4.6432 3.1543 7.8574 3.1543 3.213 0 5.8373-1.0111 7.873-3.0332 2.0364-2.0263 3.0547-5.1142 3.0547-9.2656 0-4.1484-.9939-7.2508-2.9844-9.2969-1.9908-2.05-4.6031-3.0723-7.8398-3.0723zm-30.105.30859c-.45888 0-.82988.16637-1.1152.49609-.28717.33489-.42969.78715-.42969 1.3594v20.584c0 1.053.58624 1.5781 1.752 1.5781h5.8652c7.1824-.000001 10.773-4.2092 10.773-12.627 0-3.9348-.94335-6.8151-2.832-8.6445-1.8853-1.83-4.6472-2.7461-8.2832-2.7461h-5.7305zm42.807 0c-.38928 0-.66468.52801-.82422 1.5801-.0687.50294-.10157 1.0191-.10157 1.543 0 .52694.03287 1.0409.10157 1.543.15954 1.0548.43494 1.5801.82422 1.5801h4.1152v17.225c0 .45462 1.1351.68555 3.3984.68555 2.2655 0 3.3965-.23093 3.3965-.68555v-17.225h4.0137c.38868 0 .66225-.52528.82422-1.5801.0672-.50202.10156-1.016.10156-1.543.00001-.52391-.03436-1.04-.10156-1.543-.16197-1.0521-.43554-1.5801-.82422-1.5801h-14.924zm-58.291 6.2793c1.0989 0 2.0193.49244 2.7617 1.4746.74331.98339 1.1152 2.3913 1.1152 4.2207 0 1.8309-.35955 3.2363-1.0801 4.2188-.72053.98612-1.6597 1.4785-2.8145 1.4785-1.1554 0-2.0859-.48441-2.7949-1.459-.71019-.97154-1.0644-2.3663-1.0644-4.1875 0-1.8173.37148-3.2302 1.1133-4.2363.74574-1.0053 1.6663-1.5098 2.7637-1.5098zm45.504 0c1.0989 0 2.0181.49244 2.7617 1.4746.74331.98339 1.1152 2.3913 1.1152 4.2207 0 1.8309-.3612 3.2363-1.082 4.2188-.71961.98612-1.6574 1.4785-2.8125 1.4785-1.1554 0-2.0888-.48441-2.7969-1.459-.70806-.97154-1.0625-2.3663-1.0625-4.1875 0-1.8173.37179-3.2302 1.1133-4.2363.74453-1.0053 1.666-1.5098 2.7637-1.5098zm-24.977.23828h.34375c1.4638 0 2.5334.33466 3.209.99805.6722.66157 1.0098 2.0859 1.0098 4.2715 0 2.1847-.32289 3.7447-.97656 4.6816-.65214.9378-1.6059 1.4082-2.8652 1.4082-.34218 0-.54909-.063339-.61719-.18945-.06873-.12672-.10352-.42897-.10352-.9082v-10.262z" fill="#fff"/>
 <path d="m42.521 37.633-19.795-17.368v26.015c0 4.0948-0.02493 12.127-0.03635 15.462-2.882 0.04067-22.81 4.6902-22.681 5.1474 0.51464-0.01048 3.3063-6.0861 3.3063-6.0861l10.616-4.069v-49.84c0-0.72898 0.43896-1.2153 0.65966-1.2153 9.4496 8.7523 18.478 17.079 27.927 25.831z" fill="url(#c)" stop-color="#000000" stroke-width=".16017" style="font-variation-settings:normal"/>
 <path d="m42.494 37.633 19.825-17.368v26.015c0 4.0948 0.0249 12.127 0.0363 15.462 2.882 0.04067 22.81 4.6902 22.681 5.1474-0.51464-0.01048-3.3063-6.0861-3.3063-6.0861l-10.616-4.069v-49.84c0-0.72898-0.43896-1.2153-0.65977-1.2153-9.4496 8.7523-18.507 17.079-27.956 25.831z" fill="url(#d)" stop-color="#000000" stroke-width=".16017" style="font-variation-settings:normal"/>
 <text transform="scale(1.0726 .93234)" x="75.306732" y="35.316441" fill="#000000" font-size="12.943px" letter-spacing=".034668px" stop-color="#000000" stroke="#a6a6a6" stroke-width=".46224" word-spacing=".045068px" style="-inkscape-stroke:none;font-variation-settings:normal" xml:space="preserve"><tspan x="75.306732" y="35.316441" font-family="'Lucida Bright'" font-size="12.943px" font-weight="400" stroke-width=".46225">METRO GAYA </tspan></text>
 <text transform="scale(1.0726 .93234)" x="92.088898" y="56.767788" fill="#000000" font-size="12.943px" letter-spacing=".034668px" stop-color="#000000" stroke="#a6a6a6" stroke-width=".46224" word-spacing=".045068px" style="-inkscape-stroke:none;font-variation-settings:normal" xml:space="preserve"><tspan x="92.088898" y="56.767788" font-family="'Lucida Bright'" font-size="12.943px" font-weight="400" stroke-width=".46225">SYSTEM</tspan></text>
</svg>
