<?xml version="1.0" encoding="UTF-8" standalone="no"?>
<svg
   height="28"
   width="116"
   version="1.1"
   id="svg49529"
   sodipodi:docname="TimelineEdit.svg"
   inkscape:version="1.2.1 (9c6d41e410, 2022-07-14)"
   xmlns:inkscape="http://www.inkscape.org/namespaces/inkscape"
   xmlns:sodipodi="http://sodipodi.sourceforge.net/DTD/sodipodi-0.dtd"
   xmlns="http://www.w3.org/2000/svg"
   xmlns:svg="http://www.w3.org/2000/svg"
   xmlns:vectornator="http://vectornator.io">
  <sodipodi:namedview
     id="namedview49531"
     pagecolor="#ffffff"
     bordercolor="#000000"
     borderopacity="0.25"
     inkscape:showpageshadow="2"
     inkscape:pageopacity="0.0"
     inkscape:pagecheckerboard="0"
     inkscape:deskcolor="#d1d1d1"
     showgrid="false"
     inkscape:zoom="2"
     inkscape:cx="104.75"
     inkscape:cy="37.5"
     inkscape:window-width="1920"
     inkscape:window-height="1057"
     inkscape:window-x="1912"
     inkscape:window-y="-8"
     inkscape:window-maximized="1"
     inkscape:current-layer="g49527" />
  <defs
     id="defs49503">
    <linearGradient
       gradientTransform="matrix(0.87220972,0,0,0.9638708,-2228.5364,-953.87268)"
       gradientUnits="userSpaceOnUse"
       id="b"
       x1="2565.3799"
       x2="3842.8401"
       y1="1212.1899"
       y2="1212.1899">
      <stop
         offset="0"
         id="stop49482"
         style="stop-color:#000000;stop-opacity:0;" />
      <stop
         offset="0.02931976"
         stop-color="#716d6d"
         id="stop49484"
         style="stop-color:#292828;stop-opacity:1;" />
      <stop
         offset="0.51700002"
         stop-color="#5d5c5c"
         id="stop49486"
         style="stop-color:#1f1e1e;stop-opacity:1;" />
      <stop
         offset="0.959907"
         stop-color="#4c4c4c"
         id="stop49488"
         style="stop-color:#292929;stop-opacity:1;" />
      <stop
         offset="1"
         id="stop49490"
         style="stop-color:#000000;stop-opacity:0;" />
    </linearGradient>
    <linearGradient
       gradientTransform="matrix(0.72877,0,0,0.71821,-1222.07,-691.923)"
       gradientUnits="userSpaceOnUse"
       id="c"
       x1="2279.9299"
       x2="2517.9299"
       y1="1176.28"
       y2="1176.28">
      <stop
         offset="0"
         stop-color="#f33"
         id="stop49493" />
      <stop
         offset="1"
         id="stop49495" />
      <stop
         offset="1"
         id="stop49497" />
    </linearGradient>
    <clipPath
       id="a">
      <path
         d="M 0,0 H 1244.42 V 310.68 H 0 Z"
         id="path49500" />
    </clipPath>
  </defs>
  <g
     clip-path="url(#a)"
     vectornator:layerName="Ebene 4"
     style="clip-rule:evenodd;fill-rule:nonzero;stroke-linecap:round;stroke-linejoin:round"
     transform="matrix(0.10285916,0,0,0.10299987,0,-2)"
     id="g49527">
    <path
       d="M 4.5284073,23.945909 H 1123.2272 V 286.73409 H 4.5284073 Z"
       fill="url(#b)"
       stroke="#000000"
       stroke-linejoin="round"
       stroke-width="10"
       style="fill:url(#b);stroke-width:9.05682;stroke-dasharray:none"
       id="path49505"
       sodipodi:nodetypes="ccccc" />
    <g
       vectornator:layerName="Gruppieren 1"
       id="g49525">
      <path
         d="m 439.484,152.9 c 0,-47.203 38.827,-85.468 86.724,-85.468 47.896,0 86.724,38.265 86.724,85.468 0,47.202 -38.828,85.467 -86.724,85.467 -47.897,0 -86.724,-38.265 -86.724,-85.467 z"
         fill="url(#c)"
         stroke="#ffffff"
         stroke-linejoin="round"
         stroke-width="10.718"
         style="fill:url(#c);stroke-width:9.71539;stroke-dasharray:none"
         id="path49507" />
      <path
         d="m 443.072,152.34 26.911,0.212 m 111.89,-0.212 26.911,0.212 m -81.931,56.579 -0.238,27.186"
         fill="none"
         stroke="#ffffff"
         stroke-linecap="round"
         stroke-linejoin="round"
         stroke-width="10.718"
         id="path49509"
         style="stroke-width:9.71539;stroke-dasharray:none" />
      <path
         d="M 524.347,90.936 524.3,157.02772"
         fill="none"
         stroke="#ffffff"
         stroke-linecap="round"
         stroke-linejoin="round"
         stroke-width="5"
         id="path49511"
         sodipodi:nodetypes="cc"
         style="stroke-width:9.71539;stroke-dasharray:none" />
      <path
         d="m 541.54,104.874 -15.333,-18.056 -1.978,-2.329 -1.891,2.4 -14.662,18.605 a 2.5000177,2.5000177 0 0 0 3.927,3.095 l 14.662,-18.605 -3.869,0.071 15.333,18.055 a 2.5,2.5 0 1 0 3.811,-3.236 z"
         fill="#ffffff"
         id="path49513"
         style="stroke-width:9.71539;stroke-dasharray:none" />
      <path
         d="M 571.84,196.83 525.912,158.24"
         fill="none"
         stroke="#ffffff"
         stroke-linecap="round"
         stroke-linejoin="round"
         stroke-width="5"
         id="path49515"
         style="stroke-width:9.71539;stroke-dasharray:none" />
      <path
         d="m 550.035,200.628 23.686,0.31 3.055,0.04 -0.566,-3.002 -4.386,-23.279 a 2.5002436,2.5002436 0 0 0 -4.914,0.926 l 4.387,23.278 2.489,-2.962 -23.685,-0.31 a 2.5,2.5 0 1 0 -0.066,4.999 z"
         fill="#ffffff"
         id="path49517"
         style="stroke-width:9.71539;stroke-dasharray:none" />
      <g
         fill="none"
         stroke="#ffffff"
         stroke-linecap="round"
         stroke-linejoin="round"
         stroke-width="10"
         id="g49523">
        <path
           d="m 609.598,152.243 73.929,0.563"
           vectornator:layerName="(line)"
           id="path49519"
           style="stroke-width:9.71539;stroke-dasharray:none" />
        <path
           d="m 684.388,152.832 24.993,-87.21 M 722.711,245.098 709.659,68.15 m 32.33,86.522 -19.394,90.356 m 82.341,-90.769 -62.255,-0.073"
           id="path49521"
           style="stroke-width:9.71539;stroke-dasharray:none" />
      </g>
    </g>
  </g>
</svg>
