<?xml version="1.0" encoding="UTF-8" standalone="no"?>
<svg
   width="1024"
   height="1024"
   version="1.1"
   id="svg22"
   sodipodi:docname="icon_outlined.svg"
   inkscape:version="1.2.1 (9c6d41e410, 2022-07-14)"
   xmlns:inkscape="http://www.inkscape.org/namespaces/inkscape"
   xmlns:sodipodi="http://sodipodi.sourceforge.net/DTD/sodipodi-0.dtd"
   xmlns:xlink="http://www.w3.org/1999/xlink"
   xmlns="http://www.w3.org/2000/svg"
   xmlns:svg="http://www.w3.org/2000/svg">
  <sodipodi:namedview
     id="namedview24"
     pagecolor="#ffffff"
     bordercolor="#000000"
     borderopacity="0.25"
     inkscape:showpageshadow="2"
     inkscape:pageopacity="0.0"
     inkscape:pagecheckerboard="0"
     inkscape:deskcolor="#d1d1d1"
     showgrid="false"
     inkscape:zoom="0.30279914"
     inkscape:cx="-604.36102"
     inkscape:cy="26.420154"
     inkscape:window-width="1920"
     inkscape:window-height="1057"
     inkscape:window-x="-8"
     inkscape:window-y="-8"
     inkscape:window-maximized="1"
     inkscape:current-layer="svg22" />
  <defs
     id="defs14">
    <linearGradient
       xlink:href="#a"
       id="c"
       x1="-92.844"
       y1="209.91"
       x2="290.871"
       y2="209.91"
       gradientUnits="userSpaceOnUse"
       gradientTransform="matrix(.34569 0 0 -.34569 138.662 383.633)" />
    <linearGradient
       id="a">
      <stop
         style="stop-color:#000;stop-opacity:1"
         offset="0"
         id="stop3" />
      <stop
         style="stop-color:#000;stop-opacity:0"
         offset="1"
         id="stop5" />
    </linearGradient>
    <linearGradient
       xlink:href="#b"
       id="d"
       x1="290.625"
       y1="209.91"
       x2="674.604"
       y2="209.91"
       gradientUnits="userSpaceOnUse"
       gradientTransform="matrix(.34569 0 0 -.34569 138.662 383.633)" />
    <linearGradient
       id="b">
      <stop
         style="stop-color:#000;stop-opacity:0"
         offset="0"
         id="stop9" />
      <stop
         style="stop-color:#000;stop-opacity:1"
         offset="1"
         id="stop11" />
    </linearGradient>
  </defs>
  <g
     style="mix-blend-mode:normal;stroke:#fff;stroke-width:7.5;stroke-linecap:butt;stroke-miterlimit:0;stroke-dasharray:none;stroke-opacity:1;paint-order:stroke markers fill"
     id="g20">
    <path
       d="m239.212 307.322-61.764 48.231v-72.242c0-11.37-.078-33.676-.113-42.938-8.992-.113-71.17-13.024-70.766-14.294 1.605.03 10.316 16.901 10.316 16.901l33.123 11.3v138.405c0 2.024 1.37 3.375 2.058 3.375 29.483-24.305 57.652-47.428 87.135-71.733z"
       style="font-variation-settings:normal;fill:url(#c);fill-opacity:1;stroke:#fff;stroke-width:1.84357743;stroke-linecap:butt;stroke-linejoin:miter;stroke-miterlimit:0;stroke-dasharray:none;stroke-dashoffset:0;stroke-opacity:1;paint-order:stroke markers fill;stop-color:#000"
       transform="matrix(3.72803 0 0 -4.43936 -381.975 1906.627)"
       id="path16" />
    <path
       d="m239.127 307.322 61.855 48.231v-72.242c0-11.37.078-33.676.114-42.938 8.991-.113 71.17-13.024 70.766-14.294-1.606.03-10.317 16.901-10.317 16.901l-33.122 11.3v138.405c0 2.024-1.37 3.375-2.06 3.375-29.482-24.305-57.742-47.428-87.226-71.733z"
       style="font-variation-settings:normal;fill:url(#d);fill-opacity:1;stroke:#fff;stroke-width:1.84357743;stroke-linecap:butt;stroke-linejoin:miter;stroke-miterlimit:0;stroke-dasharray:none;stroke-dashoffset:0;stroke-opacity:1;paint-order:stroke markers fill;stop-color:#000"
       transform="matrix(3.72803 0 0 -4.43936 -381.975 1906.627)"
       id="path18" />
  </g>
</svg>
