<svg xml:space="preserve" width="1024" height="414" viewBox="0 0 960 388.125" xmlns:xlink="http://www.w3.org/1999/xlink" xmlns="http://www.w3.org/2000/svg">
    <defs>
        <linearGradient xlink:href="#a" id="d" x1="-92.844" y1="209.91" x2="290.871" y2="209.91" gradientUnits="userSpaceOnUse" gradientTransform="matrix(.34569 0 0 -.34569 138.662 383.633)"/>
        <linearGradient id="a">
            <stop style="stop-color:#000;stop-opacity:1" offset="0"/>
            <stop style="stop-color:#000;stop-opacity:0" offset="1"/>
        </linearGradient>
        <linearGradient xlink:href="#b" id="e" x1="290.625" y1="209.91" x2="674.604" y2="209.91" gradientUnits="userSpaceOnUse" gradientTransform="matrix(.34569 0 0 -.34569 138.662 383.633)"/>
        <linearGradient id="b">
            <stop style="stop-color:#000;stop-opacity:0" offset="0"/>
            <stop style="stop-color:#000;stop-opacity:1" offset="1"/>
        </linearGradient>
        <clipPath clipPathUnits="userSpaceOnUse" id="c">
            <path d="M0 595.276h841.89V0H0Z"/>
        </clipPath>
    </defs>
    <g clip-path="url(#c)" transform="matrix(1.25 0 0 -1.25 -94.25 597.499)">
        <text xml:space="preserve" style="font-size:50.1696px;font-variation-settings:normal;letter-spacing:.134383px;word-spacing:.174696px;fill:#000;fill-opacity:1;stroke:#a6a6a6;stroke-width:1.79176;stroke-linecap:butt;stroke-linejoin:miter;stroke-miterlimit:4;stroke-dasharray:none;stroke-dashoffset:0;stroke-opacity:1;stop-color:#000" x="369.677" y="-348.756" transform="scale(1.11603 -.89603)"><tspan style="font-style:normal;font-variant:normal;font-weight:400;font-stretch:normal;font-size:50.1696px;font-family:'Lucida Bright';-inkscape-font-specification:'Lucida Bright';stroke-width:1.79178" x="369.677" y="-348.756">METRO-GAYA</tspan></text>
        <g style="mix-blend-mode:normal;stroke:#fff;stroke-width:7.5;stroke-linecap:butt;stroke-miterlimit:0;stroke-dasharray:none;stroke-opacity:1;paint-order:stroke markers fill">
            <path d="m239.212 307.322-61.764 48.231v-72.242c0-11.37-.078-33.676-.113-42.938-8.992-.113-71.17-13.024-70.766-14.294 1.605.03 10.316 16.901 10.316 16.901l33.123 11.3v138.405c0 2.024 1.37 3.375 2.058 3.375 29.483-24.305 57.652-47.428 87.135-71.733z" style="font-variation-settings:normal;fill:url(#d);fill-opacity:1;stroke:#fff;stroke-width:7.5;stroke-linecap:butt;stroke-linejoin:miter;stroke-miterlimit:0;stroke-dasharray:none;stroke-dashoffset:0;stroke-opacity:1;paint-order:stroke markers fill;stop-color:#000" transform="matrix(1.09133 0 0 1.09133 -24.267 -20.784)"/>
            <path d="m239.127 307.322 61.855 48.231v-72.242c0-11.37.078-33.676.114-42.938 8.991-.113 71.17-13.024 70.766-14.294-1.606.03-10.317 16.901-10.317 16.901l-33.122 11.3v138.405c0 2.024-1.37 3.375-2.06 3.375-29.482-24.305-57.742-47.428-87.226-71.733z" style="font-variation-settings:normal;fill:url(#e);fill-opacity:1;stroke:#fff;stroke-width:7.5;stroke-linecap:butt;stroke-linejoin:miter;stroke-miterlimit:0;stroke-dasharray:none;stroke-dashoffset:0;stroke-opacity:1;paint-order:stroke markers fill;stop-color:#000" transform="matrix(1.09133 0 0 1.09133 -24.267 -20.784)"/>
        </g>
        <text xml:space="preserve" style="font-size:23.9177px;font-variation-settings:normal;letter-spacing:.0640654px;word-spacing:.0832843px;fill:#000;fill-opacity:1;stroke:#a6a6a6;stroke-width:.854198;stroke-linecap:butt;stroke-linejoin:miter;stroke-miterlimit:4;stroke-dasharray:none;stroke-dashoffset:0;stroke-opacity:1;stop-color:#000" x="494.267" y="-298.853" transform="scale(1.11603 -.89603)"><tspan style="font-style:normal;font-variant:normal;font-weight:400;font-stretch:normal;font-size:23.9177px;font-family:'Lucida Bright';-inkscape-font-specification:'Lucida Bright';stroke-width:.85421" x="494.267" y="-298.853">SYSTEM</tspan></text>
    </g>
</svg>
