<?xml version="1.0" encoding="UTF-8" standalone="no"?>
<!-- Uploaded to: SVG Repo, www.svgrepo.com, Generator: SVG Repo Mixer Tools -->

<svg
   fill="#000000"
   width="16px"
   height="16px"
   viewBox="0 0 32 32"
   stroke="#a60004"
   version="1.1"
   id="svg1973"
   sodipodi:docname="DeadlineAudioInterface.svg"
   inkscape:version="1.2.1 (9c6d41e410, 2022-07-14)"
   xmlns:inkscape="http://www.inkscape.org/namespaces/inkscape"
   xmlns:sodipodi="http://sodipodi.sourceforge.net/DTD/sodipodi-0.dtd"
   xmlns="http://www.w3.org/2000/svg"
   xmlns:svg="http://www.w3.org/2000/svg">
  <defs
     id="defs1977" />
  <sodipodi:namedview
     id="namedview1975"
     pagecolor="#ffffff"
     bordercolor="#000000"
     borderopacity="0.25"
     inkscape:showpageshadow="2"
     inkscape:pageopacity="0.0"
     inkscape:pagecheckerboard="0"
     inkscape:deskcolor="#d1d1d1"
     showgrid="false"
     inkscape:zoom="19.379145"
     inkscape:cx="-6.9662515"
     inkscape:cy="8.9787242"
     inkscape:window-width="1920"
     inkscape:window-height="1057"
     inkscape:window-x="1912"
     inkscape:window-y="-8"
     inkscape:window-maximized="1"
     inkscape:current-layer="svg1973" />
  <path
     fill="#000000"
     d="M 16.66325,9.6058819 C 15.638628,10.199174 14.213511,11.025901 12.387772,12.086131 10.562097,13.146295 9.1369426,13.978511 8.1123666,14.58278 6.8479967,14.187251 5.7907203,13.473158 4.9405378,12.440434 l -0.1798431,0.115313 c -0.1307974,0.07696 -0.2724988,0.09617 -0.4250913,0.05769 C 4.1830043,12.575022 4.0631046,12.489822 3.9759094,12.35798 L 3.4363718,11.418686 c -0.076299,-0.131842 -0.092649,-0.28015 -0.049049,-0.444986 0.0436,-0.16477 0.1307973,-0.291124 0.261594,-0.378998 l 0.1798461,-0.09891 C 3.2510761,8.9796624 3.2374508,7.4387756 3.7878887,5.8732585 4.3383278,4.30765 5.327481,3.1128668 6.7553476,2.2888829 c 1.449668,-0.8349731 2.975632,-1.1041464 4.5778794,-0.807507 1.602299,0.2966329 2.915695,1.0766737 3.940252,2.3401222 l 0.179864,-0.115359 c 0.152618,-0.076904 0.305172,-0.090636 0.45779,-0.0412 0.152619,0.049444 0.272505,0.1400812 0.359725,0.2719172 l 0.523189,0.9393495 c 0.07624,0.1318362 0.09533,0.2746614 0.05724,0.428469 -0.03815,0.1538143 -0.122631,0.2746614 -0.253428,0.3625609 l -0.212598,0.1153527 c 0.457789,1.2194988 0.550432,2.4939561 0.277992,3.8232935 z m 4.136448,18.6056901 c 0.403303,0.780015 0.907415,1.378794 1.512336,1.796274 0.604922,0.41748 1.256164,0.626219 1.953794,0.626219 1.220753,0 2.226232,-0.403759 3.016505,-1.21128 0.790207,-0.807518 1.179853,-1.809993 1.169009,-3.007553 0,-0.384487 -0.02999,-0.769038 -0.08997,-1.153591 -0.05991,-0.384486 -0.12263,-0.708606 -0.188029,-0.972291 -0.0654,-0.263684 -0.166209,-0.563043 -0.302429,-0.898136 -0.136285,-0.335095 -0.237094,-0.571275 -0.302492,-0.708606 -0.0654,-0.13733 -0.174375,-0.351624 -0.326994,-0.642749 -0.152618,-0.291125 -0.234351,-0.453152 -0.245263,-0.486145 -0.239772,-0.46145 -0.487712,-0.774528 -0.743884,-0.939364 -0.256172,-0.164769 -0.465957,-0.203251 -0.629486,-0.115312 -0.108976,0.05488 -0.185285,0.159283 -0.228862,0.313078 -0.04358,0.153794 -0.03815,0.354302 0.01633,0.601522 0.05448,0.247223 0.15804,0.508098 0.310659,0.782759 0.316083,0.549389 0.629488,1.271714 0.940082,2.167107 0.31066,0.895394 0.465957,1.623272 0.465957,2.18357 0,0.714159 -0.297005,1.334891 -0.891016,1.862196 -0.594075,0.527371 -1.277985,0.791056 -2.051923,0.791056 -0.632165,0 -1.307974,-0.593292 -2.027293,-1.77981 l 0.130731,-0.08238 c 0.294327,-0.175812 0.512345,-0.337838 0.653987,-0.486145 0.141708,-0.148373 0.228928,-0.343328 0.261595,-0.58506 0.03273,-0.241668 -0.03267,-0.516329 -0.196196,-0.823985 l -6.180141,-14.255013 -2.665011,1.549119 1.357038,2.356639 c 0.0654,0.109825 0.07905,0.233436 0.0409,0.370766 -0.03815,0.137331 -0.11172,0.238924 -0.22076,0.304846 l -0.637589,0.3626 -0.637653,0.362534 c -0.119886,0.0769 -0.242518,0.09611 -0.367892,0.05769 -0.125309,-0.03849 -0.226119,-0.118122 -0.302428,-0.238989 L 12.052603,13.973019 9.3876306,15.522136 18.543403,28.04673 c 0.305237,0.406505 0.615831,0.628965 0.93198,0.667447 0.316082,0.03841 0.67032,-0.07415 1.062711,-0.337839 z"
     id="path1971"
     style="fill:none;stroke-width:0.731869;stroke-dasharray:none" />
  <path
     style="fill:#808080;stroke-width:0.0206407"
     d="M 3.5630584,6.8494017 C 3.3469195,6.73415 3.0639492,6.5177152 2.8510223,6.3047884 L 2.4976695,5.9514356 2.3625736,6.0399537 C 2.2338726,6.124282 2.2240296,6.1238743 2.154637,6.0313434 2.1145747,5.9779223 2.0345561,5.8429326 1.9768179,5.7313661 1.87729,5.5390499 1.8765401,5.5250806 1.9623742,5.4623172 2.0121683,5.4259069 2.0774831,5.3879252 2.1075182,5.3779135 2.1424649,5.3662646 2.1179766,5.2123123 2.039506,4.9503372 1.7028755,3.8264908 2.053501,2.564731 2.9276356,1.7543171 3.7228626,1.0170589 4.7922829,0.74057454 5.8260562,1.0049692 6.3919368,1.1496971 6.8045409,1.3861658 7.2312808,1.8103214 7.5892099,2.1660831 7.6033225,2.174329 7.7356224,2.1050099 7.9080454,2.0146685 7.9453685,2.0397892 8.1040891,2.3530094 l 0.1296394,0.2558303 -0.1565017,0.08883 C 7.9723227,2.7572137 7.9315764,2.8120199 7.9536387,2.8639034 8.1862992,3.4110511 8.2691748,4.5257292 8.0885921,4.679034 7.9331028,4.8110356 4.0597329,7.0437338 3.9889538,7.0421584 3.9519871,7.0413328 3.7603342,6.9545947 3.5630584,6.8494017 Z"
     id="path16106"
     transform="scale(2)" />
  <path
     style="fill:#a6a6a6;stroke-width:0.0206407;fill-opacity:1"
     d="m 11.548777,14.970855 c -0.362398,-0.172947 -0.67747,-0.474577 -0.889517,-0.851568 l -0.176147,-0.313164 -0.169546,0.104785 C 9.9106269,14.159939 9.822944,14.18699 9.6793937,14.106559 9.5333797,14.024747 5.0154409,7.8848981 5.0546142,7.8215144 c 0.055276,-0.089438 0.8693014,-0.5248682 0.907401,-0.4853778 0.02278,0.023611 0.1604612,0.2519174 0.3059583,0.5073466 0.3011236,0.528641 0.4146141,0.6450233 0.6289962,0.6450233 0.1771958,0 0.9498241,-0.429178 1.0247864,-0.5692462 C 8.0320386,7.7131954 7.972388,7.4862937 7.6712175,6.9662515 L 7.3723771,6.4502329 7.8348095,6.1782942 C 8.0891472,6.0287279 8.3051288,5.9142424 8.3147683,5.923882 c 0.076945,0.076945 3.0634427,7.073963 3.0634427,7.177291 0,0.123444 -0.203171,0.319643 -0.511599,0.494045 -0.158914,0.08986 0.48804,0.937512 0.844717,1.106766 0.240994,0.114359 0.690026,0.103135 1.034811,-0.02586 0.369272,-0.138162 0.797374,-0.547022 0.925896,-0.884279 0.200149,-0.525214 -0.01276,-1.570961 -0.529758,-2.602044 -0.326001,-0.650162 -0.339143,-0.933912 -0.02772,-0.598514 0.144965,0.156126 0.583471,1.032125 0.710738,1.419834 0.126338,0.384884 0.198768,0.957627 0.172623,1.36503 -0.04371,0.68114 -0.442362,1.269953 -1.060487,1.56636 -0.176728,0.08475 -0.363482,0.122121 -0.681988,0.136487 -0.384622,0.01735 -0.471614,0.004 -0.706666,-0.108138 z"
     id="path19292"
     transform="scale(2)" />
  <path
     style="fill:#a6a6a6;fill-opacity:1;stroke-width:0.0206407"
     d="M 3.6122707,6.8229712 C 3.4420617,6.7314894 3.12303,6.4854517 2.9033113,6.2762211 L 2.5038228,5.8958019 2.3677607,5.9849532 C 2.2157062,6.0845831 2.2176264,6.086013 2.0324823,5.7353235 L 1.9274792,5.5364328 2.0393813,5.4580535 C 2.1654614,5.3697435 2.1642797,5.3319611 2.0131175,4.6183668 1.716617,3.2186707 2.5655106,1.7163271 3.9733435,1.1492242 4.3607395,0.99317339 4.4258754,0.98285722 5.0311817,0.98168478 c 0.5421933,-0.00105 0.7000615,0.0177677 0.9902626,0.11803922 0.3916868,0.1353373 0.797781,0.3942449 1.2666692,0.8075719 0.2881149,0.2539742 0.3358089,0.2784203 0.4548756,0.2331512 0.073157,-0.027814 0.142721,-0.050572 0.1545858,-0.050572 0.011865,0 0.078633,0.1126029 0.1483729,0.2502286 l 0.1268007,0.2502287 -0.1326292,0.099022 -0.1326291,0.099022 0.1099016,0.4346019 c 0.109366,0.4324839 0.15129,1.2519397 0.07041,1.3762578 C 8.0136693,4.7131837 4.0941302,6.9935634 3.9773698,6.9906773 3.9467743,6.9899187 3.7824797,6.9144536 3.6122707,6.8229712 Z"
     id="path19639"
     transform="scale(2)" />
</svg>
