<?xml version="1.0" encoding="UTF-8" standalone="no"?>
<!-- Uploaded to: SVG Repo, www.svgrepo.com, Generator: SVG Repo Mixer Tools -->

<svg
   fill="#000000"
   width="16px"
   height="16px"
   viewBox="0 0 32 32"
   stroke="#a60004"
   version="1.1"
   id="svg2828"
   sodipodi:docname="DeadlineDmxIPInterface.svg"
   inkscape:version="1.2.1 (9c6d41e410, 2022-07-14)"
   xmlns:inkscape="http://www.inkscape.org/namespaces/inkscape"
   xmlns:sodipodi="http://sodipodi.sourceforge.net/DTD/sodipodi-0.dtd"
   xmlns="http://www.w3.org/2000/svg"
   xmlns:svg="http://www.w3.org/2000/svg">
  <defs
     id="defs2832" />
  <sodipodi:namedview
     id="namedview2830"
     pagecolor="#ffffff"
     bordercolor="#000000"
     borderopacity="0.25"
     inkscape:showpageshadow="2"
     inkscape:pageopacity="0.0"
     inkscape:pagecheckerboard="0"
     inkscape:deskcolor="#d1d1d1"
     showgrid="false"
     inkscape:zoom="13.703125"
     inkscape:cx="9.1220069"
     inkscape:cy="15.689852"
     inkscape:window-width="1920"
     inkscape:window-height="1057"
     inkscape:window-x="1912"
     inkscape:window-y="-8"
     inkscape:window-maximized="1"
     inkscape:current-layer="svg2828" />
  <path
     d="m 16,0.34148545 c -4.166921,0 -7.512195,3.07317065 -7.512195,6.82926815 0,5.1913114 1.5099087,7.9950444 1.579268,8.1310964 0,0.06936 0.06401,0.0587 0.06401,0.128049 0.06936,0.136052 2.248856,2.667684 5.868901,2.667684 3.620047,0 5.799543,-2.598323 5.868903,-2.667684 0,0 0.06402,-0.05869 0.06402,-0.128049 0.06936,-0.136052 1.579267,-2.939785 1.579267,-8.1310964 0,-3.7560975 -3.345275,-6.82926815 -7.512194,-6.82926815 z m 0,1.36585365 c 3.414634,0 6.14634,2.4596039 6.14634,5.4634145 0,3.0038114 -2.731706,5.4634144 -6.14634,5.4634144 -3.414634,0 -6.1463405,-2.459603 -6.1463405,-5.4634144 C 9.8536595,4.166943 12.585366,1.7073391 16,1.7073391 Z m 0,3.9695121 c -1.840702,0 -3.414634,1.368521 -3.414634,3.1371954 0,1.7686734 1.573932,3.1371954 3.414634,3.1371954 1.840702,0 3.414634,-1.368522 3.414634,-3.1371954 0,-1.7686744 -1.573932,-3.1371954 -3.414634,-3.1371954 z m 0,1.3658535 c 1.176448,0 2.04878,0.8243141 2.04878,1.7713419 0,0.9470274 -0.872332,1.7713414 -2.04878,1.7713414 -1.176448,0 -2.04878,-0.824314 -2.04878,-1.7713414 0,-0.9470278 0.872332,-1.7713419 2.04878,-1.7713419 z M 3.0243902,9.2195338 c -0.4108227,0 -0.6829267,0.272104 -0.6829267,0.682927 V 22.195143 c 0,0.272104 0.1974089,0.546875 0.4695122,0.682927 l 8.8780493,2.731707 h 2.539633 c -0.496188,0.432166 -0.832318,1.02439 -0.917683,1.707317 l -7.6189017,1.024391 c -0.3414635,0.06936 -0.6189026,0.341463 -0.6189026,0.682927 v 2.048781 c 0,0.410823 0.272104,0.682927 0.6829268,0.682927 H 26.243901 c 0.410824,0 0.677593,-0.272104 0.746953,-0.682927 v -2.048781 c 0,-0.341464 -0.277439,-0.613567 -0.618904,-0.682927 l -7.682927,-1.024391 c -0.08536,-0.682927 -0.421492,-1.275151 -0.917683,-1.707317 h 2.539635 l 8.878048,-2.731707 c 0.272104,-0.06936 0.469513,-0.341464 0.469513,-0.682927 V 9.9024608 c 0,-0.410823 -0.272104,-0.682927 -0.682927,-0.682927 h -4.439025 c 0,0.4775155 -0.128048,1.3658542 -0.128048,1.3658542 h 1.835365 v 8.408535 l -6.957316,2.518293 h -6.57317 L 5.7560975,18.993923 v -8.408535 h 1.8353659 c 0,0 -0.1280488,-0.8883387 -0.1280488,-1.3658542 z"
     id="path2826"
     style="stroke-width:0.8;stroke-dasharray:none" />
  <path
     style="fill:#a6a6a6;stroke-width:0.0206407;fill-opacity:1"
     d="M 6.3421289,5.6069831 C 4.95332,4.7035077 4.7644203,2.9854354 5.9336375,1.89169 6.5049372,1.3572672 7.2056062,1.0904196 8.0240897,1.0955477 c 1.399354,0.00877 2.5753183,0.9217455 2.7928483,2.1682702 0.148296,0.8497871 -0.321016,1.7957536 -1.1624893,2.3431652 -0.1675909,0.1090246 -0.327289,0.1982265 -0.3548845,0.1982265 -0.027596,0 0.046794,-0.1051974 0.1653097,-0.233772 C 9.7908403,5.2178059 9.8982449,4.9337626 9.9033046,4.4119593 9.9069968,4.0311966 9.8885395,3.9346153 9.76337,3.6797244 9.5781255,3.3024989 9.14987,2.9080775 8.7592439,2.7549288 8.34188,2.5912972 7.6546976,2.5912972 7.2373337,2.7549288 6.8467076,2.9080775 6.4184521,3.3024989 6.2332076,3.6797244 6.1091811,3.9322877 6.0892021,4.0346736 6.0903235,4.4119593 c 0.00112,0.3764011 0.021741,0.4788725 0.1453858,0.7224261 0.079245,0.1560956 0.2285014,0.3708884 0.3316805,0.4773172 0.2401327,0.247696 0.1601733,0.2460208 -0.2252609,-0.00472 z"
     id="path20446"
     transform="scale(2)" />
  <path
     style="fill:#b3b3b3;stroke-width:0.0206407"
     d="M 7.7010891,5.0113622 C 7.4608784,4.9227559 7.3672977,4.8467844 7.2724603,4.663389 7.1713446,4.4678528 7.1798413,4.3141256 7.3029226,4.1122484 7.4186968,3.9223563 7.75607,3.7434016 7.9982888,3.7434016 c 0.3839961,0 0.7994431,0.3474297 0.7994431,0.6685577 0,0.4442737 -0.6113359,0.7784176 -1.0966428,0.5994029 z"
     id="path20448"
     transform="scale(2)" />
  <path
     style="fill:#a6a6a6;stroke-width:0.0291904;fill-opacity:1"
     d="m 2.7857354,15.605196 c -0.07752,-0.07752 -0.057217,-1.10584 0.02281,-1.155299 0.071204,-0.04401 3.6387464,-0.546028 3.8892982,-0.5473 0.1343641,-6.56e-4 0.1531743,-0.03295 0.2343618,-0.402027 0.028733,-0.13062 0.1991289,-0.358749 0.4224343,-0.565564 L 7.7289154,12.588369 H 6.8329818 5.9370481 L 4.0266768,12.000806 C 2.9759726,11.677645 1.9603193,11.363034 1.7696693,11.301668 L 1.4230331,11.190095 V 8.0215012 4.8529076 h 1.0581528 c 0.8919295,0 1.0581528,0.017196 1.0581528,0.1094641 0,0.085167 -0.097415,0.1094641 -0.4388815,0.1094641 H 2.6615758 l 0.019269,2.3059358 0.019269,2.305936 1.7879134,0.6483204 1.7879133,0.64832 1.7259125,0.0013 1.7259126,0.0013 1.7404494,-0.631141 c 0.957249,-0.347128 1.7815,-0.6631213 1.831671,-0.702208 0.06947,-0.054124 0.09122,-0.6082843 0.09122,-2.324389 V 5.0718358 h -0.472054 c -0.389622,0 -0.464719,-0.019115 -0.430049,-0.1094641 0.03455,-0.090033 0.221976,-0.1094641 1.055863,-0.1094641 h 1.013857 v 3.1713203 3.1713201 l -0.930445,0.290116 c -3.7082804,1.156255 -3.493069,1.102705 -4.4316679,1.102705 H 8.3357859 l 0.3332462,0.356268 c 0.1927407,0.206055 0.3656837,0.476729 0.4101794,0.641974 l 0.076933,0.285707 1.8438205,0.240672 c 1.014101,0.132369 1.935386,0.258327 2.0473,0.279907 l 0.203479,0.03924 -0.02104,0.592371 -0.02104,0.592372 -5.1868985,0.01873 C 5.1689713,15.64591 2.812757,15.63221 2.7857336,15.6052 Z"
     id="path20450"
     transform="scale(2)" />
  <path
     style="fill:#a6a6a6;stroke-width:0.0291904;fill-opacity:1"
     d="M 6.894552,8.6275342 C 6.3182549,8.4310338 5.7503787,8.0769394 5.413461,7.7040113 4.949639,7.1906161 4.5932819,5.8124491 4.514205,4.2262501 4.4719372,3.3784042 4.4838849,3.2142699 4.6206435,2.7640219 4.9952791,1.5306157 6.0685976,0.66246237 7.4716812,0.45796087 9.0322733,0.23050228 10.59104,1.0173959 11.223089,2.3517388 11.456889,2.8453235 11.457236,2.8478202 11.453961,4.013683 11.44929,5.6764258 11.1069,7.1372535 10.592228,7.6903144 9.6983778,8.6508377 8.1292866,9.0485426 6.894552,8.6275342 Z M 8.9150174,6.4292952 C 9.8491549,6.1805778 10.610789,5.5831449 10.999381,4.7943019 11.201483,4.3840318 11.242083,4.2133721 11.262772,3.6871314 11.292307,2.9359294 11.129434,2.4242595 10.67965,1.855241 9.3423138,0.1633833 6.3725671,0.25342318 5.1990459,2.0214076 3.8729784,4.0192129 5.39828,6.513176 7.95439,6.5265663 c 0.3210946,0.00168 0.753377,-0.04209 0.9606274,-0.097271 z"
     id="path20452"
     transform="scale(2)" />
</svg>
