<?xml version="1.0" encoding="UTF-8" standalone="no"?>
<!-- Uploaded to: SVG Repo, www.svgrepo.com, Generator: SVG Repo Mixer Tools -->

<svg
   fill="#000000"
   width="16px"
   height="16px"
   viewBox="0 0 32 32"
   stroke="#a60004"
   version="1.1"
   id="svg1973"
   sodipodi:docname="DeadlineAudioInterface.svg"
   inkscape:version="1.2.1 (9c6d41e410, 2022-07-14)"
   xmlns:inkscape="http://www.inkscape.org/namespaces/inkscape"
   xmlns:sodipodi="http://sodipodi.sourceforge.net/DTD/sodipodi-0.dtd"
   xmlns="http://www.w3.org/2000/svg"
   xmlns:svg="http://www.w3.org/2000/svg">
  <defs
     id="defs1977" />
  <sodipodi:namedview
     id="namedview1975"
     pagecolor="#ffffff"
     bordercolor="#000000"
     borderopacity="0.25"
     inkscape:showpageshadow="2"
     inkscape:pageopacity="0.0"
     inkscape:pagecheckerboard="0"
     inkscape:deskcolor="#d1d1d1"
     showgrid="false"
     inkscape:zoom="27.40625"
     inkscape:cx="-4.3785633"
     inkscape:cy="3.6852908"
     inkscape:window-width="1920"
     inkscape:window-height="1057"
     inkscape:window-x="1912"
     inkscape:window-y="-8"
     inkscape:window-maximized="1"
     inkscape:current-layer="svg1973" />
  <path
     fill="#000000"
     d="M 16.66325,9.6058819 C 15.638628,10.199174 14.213511,11.025901 12.387772,12.086131 10.562097,13.146295 9.1369426,13.978511 8.1123666,14.58278 6.8479967,14.187251 5.7907203,13.473158 4.9405378,12.440434 l -0.1798431,0.115313 c -0.1307974,0.07696 -0.2724988,0.09617 -0.4250913,0.05769 C 4.1830043,12.575022 4.0631046,12.489822 3.9759094,12.35798 L 3.4363718,11.418686 c -0.076299,-0.131842 -0.092649,-0.28015 -0.049049,-0.444986 0.0436,-0.16477 0.1307973,-0.291124 0.261594,-0.378998 l 0.1798461,-0.09891 C 3.2510761,8.9796624 3.2374508,7.4387756 3.7878887,5.8732585 4.3383278,4.30765 5.327481,3.1128668 6.7553476,2.2888829 c 1.449668,-0.8349731 2.975632,-1.1041464 4.5778794,-0.807507 1.602299,0.2966329 2.915695,1.0766737 3.940252,2.3401222 l 0.179864,-0.115359 c 0.152618,-0.076904 0.305172,-0.090636 0.45779,-0.0412 0.152619,0.049444 0.272505,0.1400812 0.359725,0.2719172 l 0.523189,0.9393495 c 0.07624,0.1318362 0.09533,0.2746614 0.05724,0.428469 -0.03815,0.1538143 -0.122631,0.2746614 -0.253428,0.3625609 l -0.212598,0.1153527 c 0.457789,1.2194988 0.550432,2.4939561 0.277992,3.8232935 z m 4.136448,18.6056901 c 0.403303,0.780015 0.907415,1.378794 1.512336,1.796274 0.604922,0.41748 1.256164,0.626219 1.953794,0.626219 1.220753,0 2.226232,-0.403759 3.016505,-1.21128 0.790207,-0.807518 1.179853,-1.809993 1.169009,-3.007553 0,-0.384487 -0.02999,-0.769038 -0.08997,-1.153591 -0.05991,-0.384486 -0.12263,-0.708606 -0.188029,-0.972291 -0.0654,-0.263684 -0.166209,-0.563043 -0.302429,-0.898136 -0.136285,-0.335095 -0.237094,-0.571275 -0.302492,-0.708606 -0.0654,-0.13733 -0.174375,-0.351624 -0.326994,-0.642749 -0.152618,-0.291125 -0.234351,-0.453152 -0.245263,-0.486145 -0.239772,-0.46145 -0.487712,-0.774528 -0.743884,-0.939364 -0.256172,-0.164769 -0.465957,-0.203251 -0.629486,-0.115312 -0.108976,0.05488 -0.185285,0.159283 -0.228862,0.313078 -0.04358,0.153794 -0.03815,0.354302 0.01633,0.601522 0.05448,0.247223 0.15804,0.508098 0.310659,0.782759 0.316083,0.549389 0.629488,1.271714 0.940082,2.167107 0.31066,0.895394 0.465957,1.623272 0.465957,2.18357 0,0.714159 -0.297005,1.334891 -0.891016,1.862196 -0.594075,0.527371 -1.277985,0.791056 -2.051923,0.791056 -0.632165,0 -1.307974,-0.593292 -2.027293,-1.77981 l 0.130731,-0.08238 c 0.294327,-0.175812 0.512345,-0.337838 0.653987,-0.486145 0.141708,-0.148373 0.228928,-0.343328 0.261595,-0.58506 0.03273,-0.241668 -0.03267,-0.516329 -0.196196,-0.823985 l -6.180141,-14.255013 -2.665011,1.549119 1.357038,2.356639 c 0.0654,0.109825 0.07905,0.233436 0.0409,0.370766 -0.03815,0.137331 -0.11172,0.238924 -0.22076,0.304846 l -0.637589,0.3626 -0.637653,0.362534 c -0.119886,0.0769 -0.242518,0.09611 -0.367892,0.05769 -0.125309,-0.03849 -0.226119,-0.118122 -0.302428,-0.238989 L 12.052603,13.973019 9.3876306,15.522136 18.543403,28.04673 c 0.305237,0.406505 0.615831,0.628965 0.93198,0.667447 0.316082,0.03841 0.67032,-0.07415 1.062711,-0.337839 z"
     id="path1971"
     style="fill:none;stroke-width:0.731869;stroke-dasharray:none" />
  <path
     style="fill:#a6a6a6;fill-opacity:1;stroke-width:0.00516019"
     d="M 3.9054846,7.0501479 C 3.5100905,6.90065 3.1378079,6.6586091 2.8323454,6.3524427 2.7503687,6.2702772 2.645563,6.1559018 2.5994439,6.0982754 2.5533247,6.0406489 2.5114367,5.9932224 2.5063594,5.9928831 2.5012821,5.9925439 2.4481451,6.024195 2.3882771,6.0632189 2.2778429,6.1352035 2.2260197,6.1492564 2.1738859,6.1213553 2.1352886,6.1006987 1.8641173,5.6159283 1.8641173,5.567585 c 0,-0.07431 0.029594,-0.1080259 0.1540196,-0.1754746 0.087391,-0.047373 0.1153564,-0.068659 0.1094119,-0.083279 C 1.9514159,4.8756473 1.8752362,4.5041624 1.8748467,4.0765472 1.8746165,3.8238678 1.8871125,3.6957007 1.9353863,3.455615 2.0865601,2.7037645 2.4808934,2.037024 3.0380597,1.5912097 3.5172169,1.2078141 4.0806706,0.96387131 4.6764189,0.88189501 4.8554709,0.85725705 5.2797704,0.86075942 5.4697975,0.88844395 6.3009623,1.009534 6.9463113,1.3644748 7.4692157,1.9881203 l 0.1310135,0.1562541 0.1076225,-0.070331 c 0.1995898,-0.1304317 0.2179005,-0.1208123 0.4029066,0.2116632 0.074567,0.1340057 0.139526,0.2560883 0.1443523,0.2712949 0.00485,0.015285 5.161e-4,0.047415 -0.00969,0.071852 -0.015143,0.036243 -0.040802,0.056243 -0.1424739,0.1110525 -0.068203,0.036767 -0.1240046,0.071664 -0.1240046,0.077548 0,0.00588 0.023025,0.071997 0.051166,0.1469164 C 8.138012,3.2516535 8.2063718,3.580564 8.2214527,3.8850395 8.2370709,4.2003648 8.2036312,4.64048 8.1603332,4.6894605 8.1492566,4.7019908 7.7164136,4.9575717 7.1984599,5.2574183 5.8110815,6.06058 4.1509758,7.0277051 4.0636467,7.0836615 c -0.022177,0.01421 -0.04439,0.0095 -0.1581621,-0.033514 z"
     id="path22004"
     transform="scale(2)" />
  <path
     style="fill:#a6a6a6;fill-opacity:1;stroke-width:0.00516019"
     d="m 11.887779,15.119767 c -0.144281,-0.02731 -0.201668,-0.04416 -0.322511,-0.09471 -0.428587,-0.179265 -0.779055,-0.535504 -1.033609,-1.05063 -0.03068,-0.06208 -0.05971,-0.112879 -0.0645,-0.112879 -0.0048,0 -0.100742,0.05699 -0.213208,0.126646 C 10.01375,14.136963 9.9419718,14.169521 9.8314472,14.179842 9.7180131,14.190435 9.6319766,14.150273 9.5161736,14.032671 9.464498,13.980193 9.12634,13.528836 8.6679214,12.900466 8.248646,12.32575 7.3029307,11.031188 6.5663321,10.023662 5.8297334,9.0161356 5.1663064,8.1086286 5.0920497,8.0069799 5.0059981,7.8891852 4.9615188,7.8176827 4.9693949,7.8098066 5.0002336,7.7789679 5.9590637,7.231207 5.9666868,7.2400734 c 0.00472,0.00549 0.1413944,0.2421968 0.3037135,0.526007 0.3254618,0.5690603 0.3590696,0.6144047 0.49252,0.6645202 0.057973,0.021771 0.09563,0.026954 0.1711487,0.023558 L 7.030891,8.4498086 7.3961504,8.2434012 C 7.5970433,8.1298736 7.7846932,8.0172748 7.8131505,7.993178 7.9503486,7.8770031 8.0024425,7.6731481 7.9354681,7.5145213 7.9189916,7.4754974 7.7745061,7.2171656 7.6143891,6.9404506 7.4542722,6.6637356 7.3271143,6.4335816 7.3318162,6.4289973 7.3487269,6.4125095 8.3286525,5.8474846 8.3323437,5.8520934 c 0.00208,0.00259 0.6527466,1.5024622 1.4459296,3.3330383 0.7931827,1.8305763 1.4858287,3.4270083 1.5392137,3.5476283 0.08644,0.195304 0.09771,0.229959 0.102973,0.316625 0.01156,0.190457 -0.04615,0.262614 -0.378873,0.473671 -0.138726,0.088 -0.196049,0.131261 -0.191342,0.144409 0.01497,0.04184 0.211906,0.346343 0.306304,0.473624 0.114532,0.154427 0.289908,0.341729 0.398088,0.425158 0.08756,0.06752 0.235301,0.147702 0.333142,0.180791 0.05585,0.01889 0.108013,0.02385 0.245109,0.02332 0.422284,-0.0016 0.808251,-0.160956 1.138178,-0.469788 0.271728,-0.254354 0.425628,-0.553532 0.461418,-0.896983 0.0153,-0.146802 -0.0028,-0.383304 -0.04585,-0.599872 -0.09845,-0.495009 -0.378086,-1.252091 -0.641976,-1.73806 -0.105958,-0.195127 -0.14933,-0.305801 -0.173234,-0.442041 -0.02303,-0.131281 -0.0084,-0.219385 0.0365,-0.219385 0.04168,0 0.12687,0.04952 0.19527,0.113496 0.09698,0.09071 0.183412,0.232687 0.386417,0.634731 0.310328,0.614588 0.417724,0.917861 0.500239,1.412601 0.0418,0.25064 0.05284,0.382131 0.05295,0.63048 1.67e-4,0.401236 -0.05151,0.641034 -0.202035,0.937572 -0.26136,0.514875 -0.741507,0.869325 -1.32069,0.97495 -0.155385,0.02834 -0.509781,0.0349 -0.632297,0.01171 z"
     id="path22006"
     transform="scale(2)" />
</svg>
