<?xml version="1.0" encoding="UTF-8" standalone="no"?>
<!-- Uploaded to: SVG Repo, www.svgrepo.com, Generator: SVG Repo Mixer Tools -->

<svg
   fill="#000000"
   width="16px"
   height="16px"
   viewBox="0 0 32 32"
   stroke="#a60004"
   version="1.1"
   id="svg5"
   sodipodi:docname="DeadlineArduinoInterface.svg"
   inkscape:version="1.2.1 (9c6d41e410, 2022-07-14)"
   xmlns:inkscape="http://www.inkscape.org/namespaces/inkscape"
   xmlns:sodipodi="http://sodipodi.sourceforge.net/DTD/sodipodi-0.dtd"
   xmlns="http://www.w3.org/2000/svg"
   xmlns:svg="http://www.w3.org/2000/svg">
  <defs
     id="defs9" />
  <sodipodi:namedview
     id="namedview7"
     pagecolor="#ffffff"
     bordercolor="#000000"
     borderopacity="0.25"
     inkscape:showpageshadow="2"
     inkscape:pageopacity="0.0"
     inkscape:pagecheckerboard="0"
     inkscape:deskcolor="#d1d1d1"
     showgrid="false"
     inkscape:zoom="38.75829"
     inkscape:cx="1.4706531"
     inkscape:cy="10.165567"
     inkscape:window-width="1920"
     inkscape:window-height="1057"
     inkscape:window-x="1912"
     inkscape:window-y="-8"
     inkscape:window-maximized="1"
     inkscape:current-layer="svg5" />
  <g
     id="layer1"
     transform="matrix(1.6789719,0,0,1.6816878,0.04634468,-1.6353431)"
     style="stroke-width:0.47609716;stroke-dasharray:none">
    <path
       d="M 4,1 V 3 H 2 V 5 H 0 V 6 H 2 V 7 H 0 V 8 H 2 V 9 H 0 v 1 h 2 v 1 H 0 v 1 h 2 v 1 H 0 v 1 h 2 v 1 H 0 v 1 h 2 v 2 h 2 v 2 h 1 v -2 h 1 v 2 h 1 v -2 h 1 v 2 h 1 v -2 h 1 v 2 h 1 v -2 h 1 v 2 h 1 v -2 h 1 v 2 h 1 v -2 h 2 v -2 h 2 v -1 h -2 v -1 h 2 v -1 h -2 v -1 h 2 v -1 h -2 v -1 h 2 V 9 H 17 V 8 h 2 V 7 H 17 V 6 h 2 V 5 H 17 V 4.5 L 15.5,3 H 15 V 1 H 14 V 3 H 13 V 1 H 12 V 3 H 11 V 1 H 10 V 3 H 9 V 1 H 8 V 3 H 7 V 1 H 6 V 3 H 5 V 1 Z M 3,4 h 12 l 1,1 V 17 H 3 Z"
       style="fill:#222222;fill-opacity:1;stroke:none;stroke-width:0.47609716;stroke-dasharray:none"
       id="path2" />
  </g>
  <path
     style="fill:#a60004;fill-opacity:1;stroke-width:0.0103204;stroke-dasharray:none"
     d="m 3.3928225,15.145147 v -0.83853 H 2.5542923 1.715762 v -0.838531 -0.83853 H 0.87723168 0.0387014 V 12.216741 11.803926 H 0.87723168 1.715762 V 11.378211 10.952496 H 0.87723168 0.0387014 V 10.539681 10.126866 H 0.87723168 1.715762 V 9.6882499 9.2496341 H 0.87723168 0.0387014 V 8.8497196 8.4498052 H 0.87723168 1.715762 V 8.0111893 7.5725735 H 0.87723168 0.0387014 V 7.1726591 6.7727446 H 0.87723168 1.715762 V 6.3341288 5.8955129 H 0.87723168 0.0387014 V 5.482698 5.0698831 H 0.87723168 1.715762 V 4.6441677 4.2184524 H 0.87723168 0.0387014 V 3.8056375 3.3928225 H 0.87723168 1.715762 V 2.5542923 1.715762 H 2.5542923 3.3928225 V 0.87723168 0.0387014 h 0.412815 0.4128149 V 0.87723168 1.715762 H 4.6441677 5.0698831 V 0.87723168 0.0387014 H 5.482698 5.8955129 V 0.87723168 1.715762 H 6.3212283 6.7469437 V 0.87723168 0.0387014 H 7.1597586 7.5725735 V 0.87723168 1.715762 H 7.9982889 8.4240043 V 0.87723168 0.0387014 H 8.8368192 9.2496341 V 0.87723168 1.715762 H 9.6753495 10.101065 V 0.87723168 0.0387014 h 0.412815 0.412815 V 0.87723168 1.715762 h 0.425715 0.425715 V 0.87723168 0.0387014 h 0.412815 0.412815 V 0.87723168 1.715762 h 0.213055 0.213056 l 0.625475,0.6258661 0.625475,0.6258661 v 0.2126642 0.2126641 h 0.83853 0.83853 v 0.412815 0.4128149 h -0.83853 -0.83853 v 0.4257153 0.4257154 h 0.83853 0.83853 V 5.482698 5.8955129 h -0.83853 -0.83853 v 0.4386159 0.4386158 h 0.83853 0.83853 v 0.3999145 0.3999144 h -0.83853 -0.83853 v 0.4386158 0.4386159 h 0.83853 0.83853 v 0.3999144 0.3999145 h -0.83853 -0.83853 v 0.4386158 0.4386161 h 0.83853 0.83853 v 0.412815 0.412815 h -0.83853 -0.83853 v 0.425715 0.425715 h 0.83853 0.83853 v 0.412815 0.412815 h -0.83853 -0.83853 v 0.83853 0.838531 h -0.83853 -0.838531 v 0.83853 0.83853 H 12.19094 11.778125 v -0.83853 -0.83853 H 11.35241 10.926695 v 0.83853 0.83853 H 10.51388 10.101065 v -0.83853 -0.83853 H 9.6753495 9.2496341 v 0.83853 0.83853 H 8.8368192 8.4240043 v -0.83853 -0.83853 H 7.9982889 7.5725735 v 0.83853 0.83853 H 7.1597586 6.7469437 v -0.83853 -0.83853 H 6.3212283 5.8955129 v 0.83853 0.83853 H 5.482698 5.0698831 v -0.83853 -0.83853 H 4.6441677 4.2184524 v 0.83853 0.83853 H 3.8056375 3.3928225 Z M 13.455186,8.4178474 V 3.3547079 L 13.049124,2.9480498 12.643061,2.5413918 H 7.5922266 2.5413918 v 5.4697975 5.4697977 h 5.4568971 5.4568971 z"
     id="path14019"
     transform="scale(2)" />
  <path
     style="fill:#a6a6a6;fill-opacity:1;stroke:#800000;stroke-width:0.0103204;stroke-dasharray:none"
     d="M 2.5671927,8.0111893 V 2.5671927 H 7.5922266 12.61726 l 0.406063,0.4066581 0.406062,0.4066581 V 8.4178474 13.455186 H 7.9982889 2.5671927 Z"
     id="path14644"
     transform="scale(2)" />
</svg>
