<?xml version="1.0" encoding="UTF-8" standalone="no"?>
<!-- Uploaded to: SVG Repo, www.svgrepo.com, Generator: SVG Repo Mixer Tools -->

<svg
   fill="#000000"
   width="16px"
   height="16px"
   viewBox="0 0 32 32"
   stroke="#a60004"
   version="1.1"
   id="svg2828"
   sodipodi:docname="DeadlineDmxUsbInterface.svg"
   inkscape:version="1.2.1 (9c6d41e410, 2022-07-14)"
   xmlns:inkscape="http://www.inkscape.org/namespaces/inkscape"
   xmlns:sodipodi="http://sodipodi.sourceforge.net/DTD/sodipodi-0.dtd"
   xmlns="http://www.w3.org/2000/svg"
   xmlns:svg="http://www.w3.org/2000/svg">
  <defs
     id="defs2832" />
  <sodipodi:namedview
     id="namedview2830"
     pagecolor="#ffffff"
     bordercolor="#000000"
     borderopacity="0.25"
     inkscape:showpageshadow="2"
     inkscape:pageopacity="0.0"
     inkscape:pagecheckerboard="0"
     inkscape:deskcolor="#d1d1d1"
     showgrid="false"
     inkscape:zoom="9.6895726"
     inkscape:cx="10.320373"
     inkscape:cy="13.106873"
     inkscape:window-width="1920"
     inkscape:window-height="1057"
     inkscape:window-x="1912"
     inkscape:window-y="-8"
     inkscape:window-maximized="1"
     inkscape:current-layer="svg2828" />
  <path
     d="m 16,0.34148545 c -4.166921,0 -7.512195,3.07317065 -7.512195,6.82926815 0,5.1913114 1.5099087,7.9950444 1.579268,8.1310964 0,0.06936 0.06401,0.0587 0.06401,0.128049 0.06936,0.136052 2.248856,2.667684 5.868901,2.667684 3.620047,0 5.799543,-2.598323 5.868903,-2.667684 0,0 0.06402,-0.05869 0.06402,-0.128049 0.06936,-0.136052 1.579267,-2.939785 1.579267,-8.1310964 0,-3.7560975 -3.345275,-6.82926815 -7.512194,-6.82926815 z m 0,1.36585365 c 3.414634,0 6.14634,2.4596039 6.14634,5.4634145 0,3.0038114 -2.731706,5.4634144 -6.14634,5.4634144 -3.414634,0 -6.1463405,-2.459603 -6.1463405,-5.4634144 C 9.8536595,4.166943 12.585366,1.7073391 16,1.7073391 Z m 0,3.9695121 c -1.840702,0 -3.414634,1.368521 -3.414634,3.1371954 0,1.7686734 1.573932,3.1371954 3.414634,3.1371954 1.840702,0 3.414634,-1.368522 3.414634,-3.1371954 0,-1.7686744 -1.573932,-3.1371954 -3.414634,-3.1371954 z m 0,1.3658535 c 1.176448,0 2.04878,0.8243141 2.04878,1.7713419 0,0.9470274 -0.872332,1.7713414 -2.04878,1.7713414 -1.176448,0 -2.04878,-0.824314 -2.04878,-1.7713414 0,-0.9470278 0.872332,-1.7713419 2.04878,-1.7713419 z M 3.0243902,9.2195338 c -0.4108227,0 -0.6829267,0.272104 -0.6829267,0.682927 V 22.195143 c 0,0.272104 0.1974089,0.546875 0.4695122,0.682927 l 8.8780493,2.731707 h 2.539633 c -0.496188,0.432166 -0.832318,1.02439 -0.917683,1.707317 l -7.6189017,1.024391 c -0.3414635,0.06936 -0.6189026,0.341463 -0.6189026,0.682927 v 2.048781 c 0,0.410823 0.272104,0.682927 0.6829268,0.682927 H 26.243901 c 0.410824,0 0.677593,-0.272104 0.746953,-0.682927 v -2.048781 c 0,-0.341464 -0.277439,-0.613567 -0.618904,-0.682927 l -7.682927,-1.024391 c -0.08536,-0.682927 -0.421492,-1.275151 -0.917683,-1.707317 h 2.539635 l 8.878048,-2.731707 c 0.272104,-0.06936 0.469513,-0.341464 0.469513,-0.682927 V 9.9024608 c 0,-0.410823 -0.272104,-0.682927 -0.682927,-0.682927 h -4.439025 c 0,0.4775155 -0.128048,1.3658542 -0.128048,1.3658542 h 1.835365 v 8.408535 l -6.957316,2.518293 h -6.57317 L 5.7560975,18.993923 v -8.408535 h 1.8353659 c 0,0 -0.1280488,-0.8883387 -0.1280488,-1.3658542 z"
     id="path2826"
     style="stroke-width:0.682927" />
  <path
     style="fill:#a6a6a6;stroke-width:0.0103204;fill-opacity:1"
     d="M 7.4658221,8.8365889 C 6.7040125,8.7161793 5.9583084,8.3473488 5.4092108,7.8193741 5.1978389,7.6161331 5.1766123,7.5809536 5.0112129,7.1597585 4.6461003,6.2299876 4.4248598,4.9345471 4.4248598,3.7264569 c 0,-0.2490878 0.015331,-0.4921935 0.039939,-0.6333027 0.2670461,-1.5313558 1.665095,-2.66852396 3.3657844,-2.73771741 1.2982164,-0.0528186 2.4952698,0.50817076 3.1959828,1.49777141 0.166898,0.2357063 0.378477,0.6917192 0.456968,0.9848943 0.168648,0.6299287 0.08492,2.1569328 -0.180371,3.2896188 C 11.12538,6.8867772 10.878612,7.5263632 10.68823,7.7215413 10.333767,8.0849322 9.7621117,8.4536611 9.2566085,8.6449652 8.8589682,8.7954496 8.6006288,8.8409269 8.0885921,8.85058 7.8260676,8.8555294 7.5458212,8.8492332 7.4658221,8.8365889 Z M 8.7078144,6.4240942 c 0.6838563,-0.1487101 1.2294714,-0.43752 1.6973666,-0.8984653 0.257069,-0.2532511 0.434215,-0.5024858 0.588221,-0.8275956 0.193393,-0.4082551 0.226994,-0.5728201 0.226994,-1.1117038 0,-0.5386373 -0.03362,-0.7034976 -0.226553,-1.1107745 C 10.744515,1.9492189 10.409265,1.5680188 9.9019122,1.2339602 8.7439974,0.47154956 7.0984444,0.5070454 5.9710841,1.3187512 5.7279641,1.4937989 5.3838265,1.8426342 5.2282619,2.0717133 5.0802193,2.2897156 4.9319701,2.6074439 4.8465947,2.8897043 4.7813486,3.1054146 4.7763584,3.154909 4.7763584,3.5863295 c 0,0.4314205 0.00499,0.4809149 0.070236,0.6966252 C 5.1986149,5.446772 6.1850667,6.2527807 7.5141691,6.462573 7.7360785,6.4976 8.4800822,6.473616 8.7078144,6.4240942 Z"
     id="path22744"
     transform="scale(2)" />
  <path
     style="fill:#a6a6a6;stroke-width:0.0103204;fill-opacity:1"
     d="m 2.7671499,15.671999 c -0.040957,-0.02385 -0.045152,-0.08214 -0.045152,-0.627339 0,-0.566606 0.00293,-0.603695 0.051176,-0.647355 0.041691,-0.03773 0.3824048,-0.09086 1.8383164,-0.286646 0.9829272,-0.132183 1.8804911,-0.25332 1.9945864,-0.269193 l 0.2074457,-0.02886 0.028119,-0.178573 c 0.05138,-0.3263 0.1936868,-0.535367 0.6014842,-0.883657 l 0.141462,-0.12082 H 6.7266793 5.8687712 L 3.6697121,11.954323 C 2.2532685,11.519396 1.4499931,11.260694 1.412601,11.227399 L 1.354549,11.175709 V 8.0214351 c 0,-2.8331202 0.00413,-3.1584017 0.040544,-3.194818 0.035554,-0.035554 0.1721179,-0.040544 1.1094401,-0.040544 H 3.573429 v 0.087078 c 0,0.047893 0.00726,0.1233607 0.016126,0.167706 l 0.016126,0.080628 H 3.1507971 2.6959139 l 0.00659,2.2494285 0.00659,2.2494284 1.8036737,0.653176 1.803674,0.653177 1.6923523,-0.0013 1.6923525,-0.0013 1.7931646,-0.650255 1.793165,-0.6502538 0.0066,-2.2510825 0.0066,-2.2510826 h -0.454419 c -0.40377,0 -0.452673,-0.00455 -0.438757,-0.040811 0.0086,-0.022446 0.01566,-0.097914 0.01566,-0.1677061 V 4.7860728 h 1.059534 c 0.681024,0 1.077363,0.00954 1.10944,0.026709 0.04893,0.026185 0.04991,0.089169 0.04991,3.2090569 0,2.7109673 -0.0054,3.1868313 -0.03648,3.2126193 -0.02006,0.01665 -1.03307,0.337146 -2.251131,0.712214 l -2.214656,0.681942 -0.8514305,7.87e-4 -0.8514308,7.87e-4 0.2617128,0.251242 c 0.1439421,0.138184 0.2909827,0.30349 0.326757,0.367347 0.074584,0.133133 0.1468568,0.363243 0.1468568,0.467577 0,0.03916 0.01,0.07737 0.022214,0.08493 0.012218,0.0076 0.8975127,0.130371 1.9673217,0.272932 1.069808,0.142561 1.971525,0.265078 2.003815,0.27226 0.03229,0.0072 0.08226,0.03661 0.111039,0.06539 0.04992,0.04992 0.05197,0.07854 0.0445,0.62089 -0.0077,0.562006 -0.0085,0.569126 -0.06875,0.617836 -0.05951,0.04814 -0.180321,0.04926 -5.2504894,0.04849 -3.4770269,-5.24e-4 -5.2044792,-0.0095 -5.2347309,-0.02708 z"
     id="path22746"
     transform="scale(2)" />
  <path
     style="fill:#999999;stroke-width:0.0103204"
     d="M 7.5777778,5.7418221 C 7.321871,5.6724868 7.1020599,5.5505739 6.910869,5.3719377 6.5588896,5.0430714 6.4137608,4.6383305 6.4886385,4.194405 6.6024586,3.5196029 7.24106,3.023307 7.9982888,3.0211641 8.7694725,3.0189816 9.4154483,3.5344816 9.5159804,4.2323085 9.6091468,4.879007 9.2085713,5.4699444 8.5085099,5.7185505 8.2848323,5.797983 7.8272837,5.8094234 7.5777778,5.7418221 Z m 0.7401387,-0.312288 c 0.3219843,-0.074229 0.6403902,-0.323541 0.7829055,-0.6130144 0.076327,-0.155034 0.08431,-0.1932866 0.08431,-0.4040085 0,-0.2082396 -0.00868,-0.251082 -0.082386,-0.406678 C 8.8238798,3.4171427 8.0492923,3.1765523 7.4238607,3.4843637 7.1885379,3.6001797 7.0089415,3.7774955 6.8973325,4.0042056 6.820038,4.1612129 6.811628,4.2003173 6.8125474,4.3984343 c 0.00145,0.3128442 0.070834,0.4778585 0.2932497,0.6974484 0.1737082,0.1715012 0.3376798,0.2697083 0.5441791,0.3259242 0.1424362,0.038776 0.514586,0.043081 0.6679403,0.00773 z"
     id="path22748"
     transform="scale(2)" />
  <path
     style="fill:#a6a6a6;stroke-width:0.0103204;fill-opacity:1"
     d="M 7.172659,6.0379031 C 6.6219771,5.8919018 6.1654211,5.6261432 5.7922634,5.2343834 5.4781125,4.9045713 5.2799156,4.5607381 5.1694662,4.15395 5.0895765,3.8597144 5.0895052,3.3134409 5.169318,3.018709 5.2380398,2.7649335 5.3961135,2.429207 5.5450399,2.2207281 5.6894023,2.0186381 6.0427073,1.6807369 6.2567259,1.5400709 6.5955009,1.3174076 7.0089111,1.1534025 7.4472627,1.0677699 c 0.2116448,-0.041345 0.8904074,-0.041345 1.1020522,0 1.1446565,0.2236103 1.9658261,0.9123881 2.2644121,1.8993372 0.06302,0.2083228 0.07025,0.2720177 0.07025,0.6192224 0,0.346014 -0.0073,0.4110176 -0.06907,0.6135936 -0.236875,0.7770513 -0.79622,1.3748499 -1.5963019,1.7060438 -0.220509,0.09128 -0.6026915,0.1967613 -0.7042987,0.1943853 -0.028381,-6.631e-4 0.012273,-0.021654 0.090343,-0.046646 C 8.8995801,5.9592946 9.1220592,5.8193627 9.3668061,5.5743359 9.724003,5.2167306 9.8688564,4.8812101 9.8688564,4.4114485 9.8688564,4.1240127 9.8229209,3.9354471 9.6835861,3.6509097 9.5098679,3.296158 9.1505357,2.9762057 8.7408084,2.8114527 8.3735954,2.6637949 7.8594733,2.6329796 7.4822702,2.7360187 6.6767225,2.9560672 6.1266889,3.6358546 6.1281026,4.4096362 c 4.848e-4,0.2653822 0.054089,0.492812 0.1738591,0.7376497 0.073047,0.1493241 0.147909,0.246652 0.3278733,0.4262659 0.2453676,0.2448903 0.4214758,0.3569146 0.7352167,0.4676791 0.220901,0.077988 0.1068717,0.076015 -0.1923927,-0.00333 z"
     id="path22752"
     transform="scale(2)" />
</svg>
