<?xml version="1.0" encoding="UTF-8" standalone="no"?>
<!-- Uploaded to: SVG Repo, www.svgrepo.com, Generator: SVG Repo Mixer Tools -->

<svg
   fill="#000000"
   width="16px"
   height="16px"
   viewBox="0 0 32 32"
   stroke="#a60004"
   version="1.1"
   id="svg5396"
   sodipodi:docname="DeadlineModbusInterface.svg"
   inkscape:version="1.2.1 (9c6d41e410, 2022-07-14)"
   xmlns:inkscape="http://www.inkscape.org/namespaces/inkscape"
   xmlns:sodipodi="http://sodipodi.sourceforge.net/DTD/sodipodi-0.dtd"
   xmlns="http://www.w3.org/2000/svg"
   xmlns:svg="http://www.w3.org/2000/svg">
  <defs
     id="defs5400" />
  <sodipodi:namedview
     id="namedview5398"
     pagecolor="#ffffff"
     bordercolor="#000000"
     borderopacity="0.25"
     inkscape:showpageshadow="2"
     inkscape:pageopacity="0.0"
     inkscape:pagecheckerboard="0"
     inkscape:deskcolor="#d1d1d1"
     showgrid="false"
     inkscape:zoom="19.379145"
     inkscape:cx="5.314992"
     inkscape:cy="16.719004"
     inkscape:window-width="1920"
     inkscape:window-height="1057"
     inkscape:window-x="1912"
     inkscape:window-y="-8"
     inkscape:window-maximized="1"
     inkscape:current-layer="svg5396" />
  <path
     d="m 24.75913,0.32204826 c -0.164005,0.0204286 -0.310875,0.10980398 -0.411235,0.24514341 L 22.467963,3.0594836 C 22.115476,2.5819644 21.562267,2.2627673 20.940519,2.2627673 h -1.762437 c -1.064805,0 -1.938679,0.9116271 -1.938679,2.0224335 v 5.1071556 c 0,1.1108066 0.873874,2.0224336 1.938679,2.0224336 h 1.762437 c 0.621748,0 1.174957,-0.319197 1.527444,-0.796717 l 1.879932,2.492292 c 0.183587,0.240037 0.504253,0.308983 0.763722,0.163429 L 31.319308,9.739643 C 31.578777,9.5940886 31.698721,9.2774453 31.608151,8.9863372 31.515134,8.6926762 31.23853,8.5139254 30.947238,8.5547826 30.87135,8.5675502 30.79792,8.5956402 30.731829,8.6364968 L 24.994121,11.925506 22.879198,9.1267837 V 4.5712012 l 2.114923,-2.7987211 5.737708,3.2685793 c 0.190931,0.1353394 0.438162,0.1455538 0.638882,0.02809 0.200723,-0.117465 0.320666,-0.3421798 0.308427,-0.5822157 -0.0098,-0.2400367 -0.149317,-0.4519831 -0.35983,-0.5490194 L 25.111617,0.40376276 C 25.003912,0.33992344 24.881521,0.31183396 24.75913,0.32204826 Z M 5.9598133,0.95533548 c -3.1087408,0 -5.63979493,2.64039962 -5.63979493,5.88344302 0,3.2430435 2.53105413,5.8834435 5.63979493,5.8834435 3.1087414,0 5.6397957,-2.6404 5.6397957,-5.8834435 0,-3.2430434 -2.5310543,-5.88344302 -5.6397957,-5.88344302 z M 12.030426,3.5701991 c 0.496909,0.9933414 0.82247,2.0735049 0.82247,3.2685794 0,1.1950743 -0.325561,2.9289534 -0.82247,3.9222955 h 3.936107 C 15.920023,10.533805 15.92737,9.6936789 15.92737,9.4536417 V 4.2239149 c 0,-0.2400359 -0.0073,-0.4264476 0.03916,-0.6537158 z M 5.9598133,3.7949139 c 1.6033272,0 2.9178105,1.3712709 2.9178105,3.0438646 0,1.6725935 -1.3144833,3.043864 -2.9178105,3.043864 -1.6033273,0 -2.9178106,-1.3712705 -2.9178106,-3.043864 0,-1.6725937 1.3144833,-3.0438646 2.9178106,-3.0438646 z m 5.5222997,7.3338751 c -1.258183,1.751755 -3.2654024,2.900864 -5.5222997,2.900864 -0.7686176,0 -1.5029659,-0.145553 -2.1932536,-0.388144 l 5.5027165,10.827169 h 9.4388228 z m -6.853918,14.66775 c -1.0158486,0 -1.8016011,0.860556 -1.8016011,1.961147 v 3.26858 c 0,0.380482 0.2619177,0.653716 0.6266439,0.653716 H 24.75913 c 0.364726,0 0.626643,-0.273234 0.626643,-0.653716 v -3.26858 c 0,-1.100591 -0.785752,-1.961147 -1.8016,-1.961147 z"
     id="path5394"
     style="stroke-width:0.8;stroke-dasharray:none;fill:#a6a6a6;fill-opacity:1" />
</svg>
