<?xml version="1.0" encoding="UTF-8" standalone="no"?>
<!-- Uploaded to: SVG Repo, www.svgrepo.com, Generator: SVG Repo Mixer Tools -->

<svg
   fill="#000000"
   width="16px"
   height="16px"
   viewBox="0 0 32 32"
   stroke="#a60004"
   version="1.1"
   id="svg3683"
   sodipodi:docname="DeadlineInterface.svg"
   inkscape:version="1.2.1 (9c6d41e410, 2022-07-14)"
   xmlns:inkscape="http://www.inkscape.org/namespaces/inkscape"
   xmlns:sodipodi="http://sodipodi.sourceforge.net/DTD/sodipodi-0.dtd"
   xmlns="http://www.w3.org/2000/svg"
   xmlns:svg="http://www.w3.org/2000/svg">
  <defs
     id="defs3687" />
  <sodipodi:namedview
     id="namedview3685"
     pagecolor="#ffffff"
     bordercolor="#000000"
     borderopacity="0.25"
     inkscape:showpageshadow="2"
     inkscape:pageopacity="0.0"
     inkscape:pagecheckerboard="0"
     inkscape:deskcolor="#d1d1d1"
     showgrid="false"
     inkscape:zoom="9.6895726"
     inkscape:cx="-21.466375"
     inkscape:cy="10.836391"
     inkscape:window-width="1920"
     inkscape:window-height="1057"
     inkscape:window-x="1912"
     inkscape:window-y="-8"
     inkscape:window-maximized="1"
     inkscape:current-layer="svg3683" />
  <path
     d="m 10.308874,17.1058 h 4.550775 v 9.984786 C 12.463666,26.081875 10.567131,21.995875 10.308874,17.1058 Z m 6.826163,0 v 9.984786 c 2.389157,-1.008711 4.286829,-5.094711 4.543948,-9.984786 z M 14.859649,4.847799 c -2.395983,1.0087103 -4.292518,5.0947102 -4.550775,9.984787 h 4.550775 z m 6.653233,1.1677463 a 19.255467,18.822958 0 0 1 2.46197,8.8170407 h 3.39943 A 11.629506,11.368289 0 0 0 21.507194,6.0155453 Z m 0,19.9072937 a 11.629506,11.368289 0 0 0 5.8614,-8.817039 h -3.40512 a 19.255467,18.822958 0 0 1 -2.461968,8.817039 z M 17.140725,4.847799 v 9.984787 h 4.545087 C 21.427555,9.9425092 19.53102,5.8565093 17.140725,4.847799 Z m -6.653233,21.07504 A 19.255467,18.822958 0 0 1 8.0255223,17.1058 H 4.6204048 a 11.629506,11.368289 0 0 0 5.8670872,8.817039 z m 0,-19.9072937 A 11.629506,11.368289 0 0 0 4.6204048,14.832586 H 8.0255223 A 19.255467,18.822958 0 0 1 10.487492,6.0155453 Z"
     id="path3681"
     style="fill:#a6a6a6;fill-opacity:1;stroke-width:1.12485" />
</svg>
