<?xml version="1.0" encoding="UTF-8" standalone="no"?>
<!-- Uploaded to: SVG Repo, www.svgrepo.com, Generator: SVG Repo Mixer Tools -->

<svg
   fill="#000000"
   width="16px"
   height="16px"
   viewBox="0 0 32 32"
   stroke="#a60004"
   version="1.1"
   xml:space="preserve"
   id="svg8015"
   sodipodi:docname="DeadlineSmartlightInterface.svg"
   inkscape:version="1.2.1 (9c6d41e410, 2022-07-14)"
   xmlns:inkscape="http://www.inkscape.org/namespaces/inkscape"
   xmlns:sodipodi="http://sodipodi.sourceforge.net/DTD/sodipodi-0.dtd"
   xmlns="http://www.w3.org/2000/svg"
   xmlns:svg="http://www.w3.org/2000/svg"><defs
   id="defs8019" /><sodipodi:namedview
   id="namedview8017"
   pagecolor="#ffffff"
   bordercolor="#000000"
   borderopacity="0.25"
   inkscape:showpageshadow="2"
   inkscape:pageopacity="0.0"
   inkscape:pagecheckerboard="0"
   inkscape:deskcolor="#d1d1d1"
   showgrid="false"
   inkscape:zoom="6.8515625"
   inkscape:cx="24.957811"
   inkscape:cy="8.4652223"
   inkscape:window-width="1920"
   inkscape:window-height="1057"
   inkscape:window-x="1912"
   inkscape:window-y="-8"
   inkscape:window-maximized="1"
   inkscape:current-layer="g7994" />

<g
   id="cctv"
   transform="translate(-9.5,-2.5)" />

<g
   id="smartlamp"
   transform="matrix(0.54237288,0,0,0.54237288,-1.1525424,-1.3559319)">

<g
   id="g7994">

<path
   d="m 31.2,8 c -8.9,0.4 -16,7.7 -16.2,16.5 -0.1,5.4 2.3,10.6 6.6,13.9 2.1,1.7 3.4,4.3 3.4,7.1 V 46 c 0,0.6 0.4,1 1,1 v 3 c -0.6,0 -1,0.4 -1,1 0,0.6 0.4,1 1,1 v 2 c 0,1.3 0.8,2.4 2,2.8 V 57 c 0,2.2 1.8,4 4,4 2.2,0 4,-1.8 4,-4 v -0.2 c 1.2,-0.4 2,-1.5 2,-2.8 v -2 c 0.6,0 1,-0.4 1,-1 0,-0.6 -0.4,-1 -1,-1 v -3 c 0.6,0 1,-0.4 1,-1 v -0.4 c 0,-2.8 1.3,-5.5 3.7,-7.3 C 46.7,35 49,30.2 49,25 49,20.3 47.1,15.9 43.7,12.7 40.3,9.5 35.9,7.8 31.2,8 Z M 32,59 c -1.1,0 -2,-0.9 -2,-2 h 4 c 0,1.1 -0.9,2 -2,2 z m 4,-5 c 0,0.6 -0.4,1 -1,1 h -6 c -0.6,0 -1,-0.4 -1,-1 v -2 h 8 z m 0,-4 h -8 v -3 h 8 z M 32,31 c -0.6,0 -1,-0.4 -1,-1 0,-0.6 0.4,-1 1,-1 0.6,0 1,0.4 1,1 0,0.6 -0.4,1 -1,1 z m 9.4,5.7 C 38.8,38.8 37.2,41.8 37,45 v 0 H 33 V 32.8 c 1.2,-0.4 2,-1.5 2,-2.8 0,-1.7 -1.3,-3 -3,-3 -1.7,0 -3,1.3 -3,3 0,1.3 0.8,2.4 2,2.8 V 45 h -4 v 0 C 26.8,41.8 25.3,38.8 22.8,36.8 19,33.8 16.9,29.4 17,24.5 17.2,16.7 23.5,10.3 31.3,9.9 c 4.1,-0.2 8.1,1.3 11.1,4.1 2.9,3 4.6,6.9 4.6,11 0,4.6 -2,8.8 -5.6,11.7 z"
   id="path7972"
   style="stroke-width:1.10625;stroke-dasharray:none;stroke-miterlimit:4" />

<path
   d="m 32,23 c -1.8,0 -3.5,0.7 -4.7,1.9 -0.4,0.4 -0.4,1 0,1.4 0.4,0.4 1,0.4 1.4,0 0.9,-0.9 2.1,-1.3 3.4,-1.3 1.3,0 2.5,0.5 3.4,1.3 0.2,0.2 0.4,0.3 0.7,0.3 0.3,0 0.5,-0.1 0.7,-0.3 0.4,-0.4 0.4,-1 0,-1.4 C 35.5,23.7 33.8,23 32,23 Z"
   id="path7974"
   style="stroke-width:1.00300306;stroke-dasharray:none" />

<path
   d="m 32,19 c -2.8,0 -5.4,1 -7.5,2.9 -0.4,0.4 -0.4,1 -0.1,1.4 0.4,0.4 1,0.4 1.4,0.1 1.7,-1.5 3.8,-2.4 6.1,-2.4 2.3,0 4.4,0.9 6.1,2.4 0.2,0.2 0.4,0.3 0.7,0.3 0.3,0 0.5,-0.1 0.7,-0.3 0.4,-0.4 0.4,-1 -0.1,-1.4 -1.9,-2 -4.5,-3 -7.3,-3 z"
   id="path7976"
   style="stroke-width:1.00300306;stroke-dasharray:none" />

<path
   d="m 32,15 c -3.8,0 -7.4,1.4 -10.2,4 -0.4,0.4 -0.4,1 -0.1,1.4 0.4,0.4 1,0.4 1.4,0.1 2.4,-2.2 5.5,-3.5 8.8,-3.5 3.3,0 6.4,1.2 8.8,3.5 0.2,0.2 0.4,0.3 0.7,0.3 0.3,0 0.5,-0.1 0.7,-0.3 0.4,-0.4 0.4,-1 -0.1,-1.4 C 39.4,16.4 35.8,15 32,15 Z"
   id="path7978"
   style="stroke-width:1.00300306;stroke-dasharray:none" />

<path
   d="m 32,7 c 0.6,0 1,-0.4 1,-1 V 4 C 33,3.4 32.6,3 32,3 31.4,3 31,3.4 31,4 v 2 c 0,0.6 0.4,1 1,1 z"
   id="path7980"
   style="stroke-width:1.00300306;stroke-dasharray:none" />

<path
   d="m 53,24 h -2 c -0.6,0 -1,0.4 -1,1 0,0.6 0.4,1 1,1 h 2 c 0.6,0 1,-0.4 1,-1 0,-0.6 -0.4,-1 -1,-1 z"
   id="path7982"
   style="stroke-width:1.00300306;stroke-dasharray:none" />

<path
   d="m 13,24 h -2 c -0.6,0 -1,0.4 -1,1 0,0.6 0.4,1 1,1 h 2 c 0.6,0 1,-0.4 1,-1 0,-0.6 -0.4,-1 -1,-1 z"
   id="path7984"
   style="stroke-width:1.00300306;stroke-dasharray:none" />

<path
   d="m 45.4,12.6 c 0.3,0 0.5,-0.1 0.7,-0.3 l 1.4,-1.4 c 0.4,-0.4 0.4,-1 0,-1.4 -0.4,-0.4 -1,-0.4 -1.4,0 l -1.4,1.4 c -0.4,0.4 -0.4,1 0,1.4 0.2,0.2 0.5,0.3 0.7,0.3 z"
   id="path7986"
   style="stroke-width:1.00300306;stroke-dasharray:none" />

<path
   d="m 17.9,37.7 -1.4,1.4 c -0.4,0.4 -0.4,1 0,1.4 0.2,0.2 0.5,0.3 0.7,0.3 0.2,0 0.5,-0.1 0.7,-0.3 l 1.4,-1.4 c 0.4,-0.4 0.4,-1 0,-1.4 -0.4,-0.4 -1.1,-0.4 -1.4,0 z"
   id="path7988"
   style="stroke-width:1.00300306;stroke-dasharray:none" />

<path
   d="m 46.1,37.7 c -0.4,-0.4 -1,-0.4 -1.4,0 -0.4,0.4 -0.4,1 0,1.4 l 1.4,1.4 c 0.2,0.2 0.5,0.3 0.7,0.3 0.2,0 0.5,-0.1 0.7,-0.3 0.4,-0.4 0.4,-1 0,-1.4 z"
   id="path7990"
   style="stroke-width:1.00300306;stroke-dasharray:none" />

<path
   d="m 17.9,12.3 c 0.2,0.2 0.5,0.3 0.7,0.3 0.2,0 0.5,-0.1 0.7,-0.3 0.4,-0.4 0.4,-1 0,-1.4 L 17.9,9.5 c -0.4,-0.4 -1,-0.4 -1.4,0 -0.4,0.4 -0.4,1 0,1.4 z"
   id="path7992"
   style="stroke-width:1.00300306;stroke-dasharray:none" />

<path
   style="fill:#a6a6a6;stroke-width:0.00729761;fill-opacity:1"
   d="M 6.8792896,11.288483 C 6.7962957,10.687557 6.5419293,10.096492 6.174631,9.6510832 6.0461415,9.495269 5.8436663,9.2975699 5.6009122,9.0908979 4.8363981,8.4400181 4.3732492,7.609706 4.2291687,6.631699 4.186164,6.3397866 4.1865418,5.7793804 4.229925,5.5096921 4.438426,4.2135641 5.2348233,3.1314273 6.3989081,2.5624991 7.7377726,1.90815 9.2978427,2.0629564 10.502291,2.9696795 c 0.476616,0.3588028 0.920639,0.9480002 1.183541,1.5705059 0.385614,0.9130643 0.429427,1.8839031 0.12668,2.807031 -0.230956,0.7042221 -0.618762,1.255046 -1.29014,1.8324627 -0.5581425,0.4800286 -0.9272804,1.0402319 -1.1072676,1.6803869 -0.038483,0.136872 -0.1015354,0.446883 -0.1015354,0.499222 0,0.0087 -0.1765108,0.01586 -0.3922463,0.01586 H 8.5290764 V 9.847175 8.3192077 l 0.081166,-0.043058 C 8.6548833,8.2524672 8.7412193,8.1812176 8.8020997,8.1178167 9.1594554,7.7456681 9.1598106,7.1713899 8.8029207,6.7898742 8.3793837,6.337112 7.623794,6.4075618 7.2849272,6.9314093 c -0.1987399,0.3072279 -0.1987399,0.7353127 0,1.0425406 0.076734,0.1186215 0.2345021,0.2702391 0.3273868,0.3146235 l 0.059293,0.028333 v 1.529118 1.5291186 H 7.2814322 6.8912575 l -0.011969,-0.08666 z M 7.2041877,6.6284432 c 0.021277,-0.01114 0.069212,-0.047547 0.1065208,-0.080904 0.2183845,-0.195252 0.4328434,-0.2799722 0.744484,-0.294102 0.1750977,-0.00794 0.2355496,-0.00314 0.3614256,0.028691 0.1895227,0.047926 0.3489877,0.1257962 0.4880728,0.2383351 0.1527442,0.1235911 0.2143502,0.1513722 0.3356747,0.1513722 0.304245,0 0.5072146,-0.3283432 0.3635873,-0.5881737 C 9.5205497,5.9327809 9.2234523,5.7213605 8.8988671,5.5819092 8.1867888,5.2759798 7.3296188,5.4151135 6.7843968,5.9251249 6.6170118,6.0817002 6.5682456,6.2510094 6.640632,6.4242545 6.7299751,6.6380826 6.999354,6.7356844 7.2041877,6.6284432 Z M 10.094227,5.8488772 C 10.266807,5.7601066 10.358647,5.5732229 10.314958,5.399718 10.29763,5.3309014 10.265106,5.2828001 10.163548,5.1757926 9.8830617,4.880253 9.5100734,4.6415586 9.1058142,4.4988935 8.6178439,4.3266866 7.9951303,4.2886006 7.4564118,4.3980141 7.253191,4.4392881 6.9065363,4.5583093 6.7117953,4.6536723 6.354454,4.8286593 5.9503376,5.1384755 5.8813556,5.2903294 5.7898269,5.4918168 5.8788261,5.7399179 6.0752566,5.8308623 6.2274273,5.901315 6.393477,5.8680341 6.5602344,5.7336595 6.9147202,5.4480117 7.2752427,5.2731842 7.6665928,5.1971556 7.861864,5.1592199 8.2454922,5.1550083 8.4378563,5.1886884 8.8413196,5.259329 9.2831714,5.4710396 9.6054732,5.748145 c 0.055188,0.047449 0.1249715,0.097037 0.1550741,0.1101961 0.083153,0.036349 0.2540377,0.031502 0.3336797,-0.00946 z m 0.725491,-0.784086 c 0.152749,-0.06938 0.262933,-0.2631888 0.236976,-0.4168277 -0.0181,-0.1071 -0.07408,-0.183439 -0.265873,-0.3625116 C 10.228132,3.7600731 9.5748472,3.4400443 8.7817593,3.3012597 8.5139317,3.2543918 7.8609274,3.2447094 7.5688493,3.2832753 6.8319323,3.3805776 6.1543734,3.6549522 5.5785796,4.0892265 5.2043148,4.3715041 5.1174458,4.4824602 5.1174458,4.6782243 c 0,0.1896752 0.089589,0.3184236 0.2623631,0.3770405 0.1029787,0.034938 0.2317703,0.026372 0.3250255,-0.021616 C 5.7379851,5.0165898 5.8143672,4.9596515 5.8745724,4.907119 6.2427866,4.5858317 6.743296,4.3179933 7.2052196,4.1950475 7.4865941,4.1201567 7.6646488,4.0938381 7.9636039,4.0829495 c 0.5859419,-0.021341 1.0704296,0.082505 1.5962593,0.3421468 0.2750281,0.1358019 0.4873678,0.279258 0.7302718,0.4933683 0.08431,0.07432 0.17616,0.1450191 0.204102,0.1571094 0.07671,0.033192 0.24062,0.027763 0.325481,-0.010783 z"
   id="path32323"
   transform="matrix(3.6875,0,0,3.6875,2.1250001,2.4999994)" /><path
   style="fill:#a6a6a6;stroke-width:0.00729761;fill-opacity:1"
   d="M 7.1790194,12.478905 V 12.232611 H 8.1003421 9.0216648 V 12.478905 12.7252 H 8.1003421 7.1790194 Z"
   id="path32325"
   transform="matrix(3.6875,0,0,3.6875,2.1250001,2.4999994)" /><path
   style="fill:#a6a6a6;stroke-width:0.00729761;fill-opacity:1"
   d="m 7.2009122,14.053364 c -0.014655,-0.01465 -0.021893,-0.09609 -0.021893,-0.246294 v -0.224402 h 0.9323663 0.9323662 l -0.00648,0.216132 c -0.00444,0.148167 -0.014356,0.225616 -0.031521,0.246294 -0.022655,0.02729 -0.1087393,0.03016 -0.903991,0.03016 -0.659304,0 -0.8844229,-0.0055 -0.9008448,-0.02189 z"
   id="path32329"
   transform="matrix(3.6875,0,0,3.6875,2.1250001,2.4999994)" /><path
   style="fill:#a6a6a6;stroke-width:0.00729761;fill-opacity:1"
   d="m 7.9759873,15.144509 c -0.090325,-0.03357 -0.1659526,-0.0971 -0.2141094,-0.179857 -0.01743,-0.02995 0.00356,-0.03193 0.3396139,-0.03193 h 0.3581917 l -0.036827,0.05929 c -0.083707,0.134773 -0.2978831,0.207859 -0.4468695,0.152491 z"
   id="path32331"
   transform="matrix(3.6875,0,0,3.6875,2.1250001,2.4999994)" /></g>

</g>

<g
   id="headphone"
   transform="translate(-9.5,-2.5)" />

<g
   id="headset"
   transform="translate(-9.5,-2.5)" />

<g
   id="mouse"
   transform="translate(-9.5,-2.5)" />

<g
   id="wireless_chip"
   transform="translate(-9.5,-2.5)" />

<g
   id="gamepad"
   transform="translate(-9.5,-2.5)" />

<g
   id="wireless_charge"
   transform="translate(-9.5,-2.5)" />

<g
   id="camera"
   transform="translate(-9.5,-2.5)" />

<g
   id="printer"
   transform="translate(-9.5,-2.5)" />

<g
   id="laptop"
   transform="translate(-9.5,-2.5)" />

<g
   id="smartphone"
   transform="translate(-9.5,-2.5)" />

<g
   id="smartwatch"
   transform="translate(-9.5,-2.5)" />

<g
   id="speaker"
   transform="translate(-9.5,-2.5)" />

<g
   id="drone"
   transform="translate(-9.5,-2.5)" />

<g
   id="smart_plug"
   transform="translate(-9.5,-2.5)" />

<g
   id="router"
   transform="translate(-9.5,-2.5)" />

<g
   id="smart_lock"
   transform="translate(-9.5,-2.5)" />

<g
   id="air_conditioner"
   transform="translate(-9.5,-2.5)" />

<g
   id="smartglasses"
   transform="translate(-9.5,-2.5)" />

</svg>
