<svg height="16" width="16" xmlns="http://www.w3.org/2000/svg">
    <path d="M12.698 4.59c-.368-.508-2.218-.623-3.086-.546.034-1.064.492-1.839-.593-2.766m-6.49-.51H7.25c1.205-.032 1.977.591 2.788 1.326L11.97 3.81c.998.89 1.393 1.729 1.5 2.94v8.483H2.53z" fill="#eff1f5" stroke="#9f9fa1" stroke-linecap="round" stroke-linejoin="round"/>
    <path d="m509.06 483.427-122.214-95.47v142.985c0 22.484-.132 66.618-.23 84.974-17.786.23-140.833 25.777-140.043 28.28 3.208-.098 20.42-33.462 20.42-33.462l65.564-22.352V314.489c0-3.996 2.677-6.675 4.04-6.675l172.451 141.93Z" style="font-variation-settings:normal;fill:#1a1a1a;fill-opacity:1;stroke-width:.932959;stroke-linecap:butt;stroke-linejoin:miter;stroke-miterlimit:4;stroke-dasharray:none;stroke-dashoffset:0;stroke-opacity:1;stop-color:#000" transform="translate(-.711 .57) scale(.01727)"/>
    <path d="m508.928 483.427 122.388-95.47v142.985c0 22.484.132 66.618.23 84.974 17.786.23 140.833 25.777 140.043 28.28-3.205-.098-20.42-33.462-20.42-33.462l-65.564-22.352V314.489c0-3.996-2.678-6.675-4.04-6.675C623.203 355.9 567.3 401.66 508.939 449.744z" style="font-variation-settings:normal;vector-effect:none;fill:#1a1a1a;fill-opacity:1;stroke-width:.932959;stroke-linecap:butt;stroke-linejoin:miter;stroke-miterlimit:4;stroke-dasharray:none;stroke-dashoffset:0;stroke-opacity:1;-inkscape-stroke:none;stop-color:#000" transform="translate(-.711 .57) scale(.01727)"/>
</svg>
