<svg height="1024" width="1024" xmlns="http://www.w3.org/2000/svg">
    <path d="M812.681 293.783c-23.575-32.542-141.93-39.864-197.505-34.983 2.17-68.048 31.457-117.655-37.966-177.025M161.89 49.15H464c77.128-2.02 126.554 37.836 178.444 84.882l123.665 109.83c63.819 56.94 89.13 110.624 96 188.174v542.885H161.89z" fill="#eff1f5" stroke="#9f9fa1" stroke-linecap="round" stroke-linejoin="round" stroke-width="19.603"/>
    <text style="font-weight:800;font-size:16;font-family:Montserrat;letter-spacing:0;word-spacing:0;fill:#a60003;fill-opacity:1" x="234.416" y="878.644"><tspan font-size="112" x="234.416" y="878.644" style="fill:#a60003;fill-opacity:1">PROJECT</tspan></text>
    <path d="m509.06 483.427-122.214-95.47v142.985c0 22.484-.132 66.618-.23 84.974-17.786.23-140.833 25.777-140.043 28.28 3.208-.098 20.42-33.462 20.42-33.462l65.564-22.352V314.489c0-3.996 2.677-6.675 4.04-6.675l172.451 141.93Z" style="font-variation-settings:normal;fill:#1a1a1a;fill-opacity:1;stroke-width:.932959;stroke-linecap:butt;stroke-linejoin:miter;stroke-miterlimit:4;stroke-dasharray:none;stroke-dashoffset:0;stroke-opacity:1;stop-color:#000"/>
    <path d="m508.928 483.427 122.388-95.47v142.985c0 22.484.132 66.618.23 84.974 17.786.23 140.833 25.777 140.043 28.28-3.205-.098-20.42-33.462-20.42-33.462l-65.564-22.352V314.489c0-3.996-2.678-6.675-4.04-6.675C623.203 355.9 567.3 401.66 508.939 449.744z" style="font-variation-settings:normal;vector-effect:none;fill:#1a1a1a;fill-opacity:1;stroke-width:.932959;stroke-linecap:butt;stroke-linejoin:miter;stroke-miterlimit:4;stroke-dasharray:none;stroke-dashoffset:0;stroke-opacity:1;-inkscape-stroke:none;stop-color:#000"/>
</svg>
