<svg height="32" width="32" xmlns="http://www.w3.org/2000/svg">
    <path d="M25.396 9.18c-.736-1.016-4.435-1.245-6.172-1.093.068-2.126.983-3.676-1.186-5.532M5.059 1.536H14.5c2.41-.063 3.955 1.182 5.576 2.652l3.865 3.433c1.994 1.779 2.785 3.457 3 5.88v16.965H5.059z" fill="#eff1f5" stroke="#9f9fa1" stroke-linecap="round" stroke-linejoin="round"/>
    <path d="m509.06 483.427-122.214-95.47v142.985c0 22.484-.132 66.618-.23 84.974-17.786.23-140.833 25.777-140.043 28.28 3.208-.098 20.42-33.462 20.42-33.462l65.564-22.352V314.489c0-3.996 2.677-6.675 4.04-6.675l172.451 141.93Z" style="font-variation-settings:normal;fill:#1a1a1a;fill-opacity:1;stroke-width:.932959;stroke-linecap:butt;stroke-linejoin:miter;stroke-miterlimit:4;stroke-dasharray:none;stroke-dashoffset:0;stroke-opacity:1;stop-color:#000" transform="matrix(.03832 0 0 .03832 -3.446 -.328)"/>
    <path d="m508.928 483.427 122.388-95.47v142.985c0 22.484.132 66.618.23 84.974 17.786.23 140.833 25.777 140.043 28.28-3.205-.098-20.42-33.462-20.42-33.462l-65.564-22.352V314.489c0-3.996-2.678-6.675-4.04-6.675C623.203 355.9 567.3 401.66 508.939 449.744z" style="font-variation-settings:normal;vector-effect:none;fill:#1a1a1a;fill-opacity:1;stroke-width:.932959;stroke-linecap:butt;stroke-linejoin:miter;stroke-miterlimit:4;stroke-dasharray:none;stroke-dashoffset:0;stroke-opacity:1;-inkscape-stroke:none;stop-color:#000" transform="matrix(.03832 0 0 .03832 -3.446 -.328)"/>
</svg>
