<?xml version="1.0" encoding="UTF-8" standalone="no"?>
<svg
   height="16"
   width="16"
   xml:space="preserve"
   version="1.1"
   id="svg4"
   sodipodi:docname="vst3_run_icon.svg"
   inkscape:version="1.2.1 (9c6d41e410, 2022-07-14)"
   xmlns:inkscape="http://www.inkscape.org/namespaces/inkscape"
   xmlns:sodipodi="http://sodipodi.sourceforge.net/DTD/sodipodi-0.dtd"
   xmlns="http://www.w3.org/2000/svg"
   xmlns:svg="http://www.w3.org/2000/svg"><defs
     id="defs8"><linearGradient
       id="a"
       x2="1"
       gradientUnits="userSpaceOnUse"
       gradientTransform="matrix(0,12.177161,-11.018666,0,8.1003664,1.6863211)"><stop
         offset="0%"
         stop-color="#424242"
         id="stop143" /><stop
         offset="18%"
         stop-color="#313131"
         id="stop145" /><stop
         offset="18%"
         stop-color="#313131"
         id="stop147" /><stop
         offset="62%"
         stop-color="#0e0e0e"
         id="stop149" /><stop
         offset="100%"
         id="stop151" /></linearGradient></defs><sodipodi:namedview
     id="namedview6"
     pagecolor="#ffffff"
     bordercolor="#000000"
     borderopacity="0.25"
     inkscape:showpageshadow="2"
     inkscape:pageopacity="0.0"
     inkscape:pagecheckerboard="0"
     inkscape:deskcolor="#d1d1d1"
     showgrid="false"
     inkscape:zoom="38.75829"
     inkscape:cx="14.513024"
     inkscape:cy="10.500979"
     inkscape:window-width="1920"
     inkscape:window-height="1057"
     inkscape:window-x="1912"
     inkscape:window-y="-8"
     inkscape:window-maximized="1"
     inkscape:current-layer="g141" /><g
     fill-rule="nonzero"
     id="g141"
     transform="matrix(0.00289205,0,0,0.00319611,-0.57574643,1.686318)"><path
       d="m 1117.2,3347.6 c 0,-6.4 238.6,-313.7 580.8,-747.7 l 121,-154 649.6,-1 c 357,0 648.6,3 648.6,5 0,3 -33,46 -73.4,95 -40.4,49 -73.4,95 -73.4,100 0,7 81.7,10 257,10 141.2,0 256.8,3 256.8,5 0,3 -16.5,26 -37.7,50 l -37.6,45 h -531 l -106,133 c -58,73 -106,135 -106,137 0,2 117,5 261,6 l 260,3 -38,49 -38,48 h -534 l -86,110 -85,110 h -646 c -356,0 -646.8,-3 -646.8,-7 z"
       fill="#8b9da7"
       id="path135"
       style="fill:#e0e0e0;fill-opacity:1" /><path
       d="m 2724.6,3346.7 c 1.8,-3.7 23.8,-34 48.6,-68 l 45.8,-61.3 322,-1 h 322 l 97.3,-123.8 c 54,-68 98.2,-125.7 98.2,-127.5 0,-2 -121,-6 -269.7,-7 l -269.8,-3 45,-57 45,-57 h 549.5 l 94.5,-120 c 52.3,-66 96.3,-123 97.2,-128 2,-5 -115.6,-9 -313.7,-9 -174.3,0 -317.5,-2 -317.5,-5 0,-3 22,-34 48.7,-68 l 47.7,-64 745.8,-1 H 4908 l -26.6,35 c -13.8,19 -174.3,224 -355,454 L 4196,3354 h -737.5 c -405.5,0 -735.8,-2.7 -734,-7.3 z m -589,-1608.2 v -267 l 25.7,5.5 c 13.7,2.8 48.6,7.4 77,11 49.6,5.5 53.2,7.4 72.5,44 46.8,91 130.3,180 223.8,239.5 180,115.6 468.8,172.5 764.3,151.4 194,-14 298,-49 374,-125 49,-49 58,-90 34,-139 -42,-81 -149,-122 -590,-223 -154,-36 -318,-75 -364,-87 -220,-60 -405,-139 -468,-199 l -29,-28 19,-24 c 92,-111 132,-134 258,-151 43,-6 78,-13 78,-16 0,-9 -129,4 -184,18 -91,22 -97,29 -564,639 l -303,396 h -91 l -416,-490 c -230,-270 -432,-503 -452,-516 -34,-25 -84,-38 -198,-52 -46,-6 -49,-7 -49,-32 v -26 h 1110 v 26 c 0,31 -5.4,32 -155,41 -82.6,5.2 -120,21 -120,51 0,10 44,72.5 99,139.5 312,386.2 401,493.5 406.3,491.7 8,-2.7 367,-468.8 423,-547.7 36,-51.2 44,-91.5 22,-110 -16,-13.6 -95,-26.5 -179,-30.2 l -69,-2.7 -3,-29.3 -3,-30 h 170 c 160,0 170,-1 176,-17 8,-27 99,-106 170,-148 174,-104 404,-143 797,-134 188,4 260,9 432,34 248,35 282,34 330,-13 32,-31 37,-33 94.7,-33 h 61.8 l 2.4,150 c 2,82 2,183 0,225 l -2.8,76 h -64 c -37,0 -64.6,-3.4 -64.6,-9 0,-5.6 -35.3,-46 -80,-92 -172,-174 -387,-260 -691,-273 -323,-13 -554,73 -537,202 12,101 93,139 519.3,240 387,91.4 440,103.3 445,99 2.8,-3 4.6,-79 4.6,-170 V 838 h 88 c 35,-1 57,0 57,0 l 45,38.6 40,38.4 42,36.6 -81,75.3 c -47.6,44 -75.3,77 -92,123 -3,8 -10,24 -9.6,32 0.4,15 1,16 84.3,42 248.5,76 387,177 416.4,303 20,89 -23,177 -125,253 -206.4,156 -467,215 -936.7,217 -250.7,1 -354,-7 -592,-49 -178,-30 -253,-21 -284.5,36 -8,17 -18,19 -87,19 h -78 v -267 z"
       fill="#c9d9e2"
       id="path137"
       style="fill:#e1e1e1;fill-opacity:1" /><path
       d="m 4047.5,1965 c -2.8,-7.3 -3.7,-24.7 -2,-39.4 3,-24.7 5.6,-25.6 53.3,-28.4 87.2,-3.7 174.3,-20.2 211,-38.5 28.5,-14.7 38.6,-26.6 46,-54.2 5.4,-22 9,-195.4 9,-463.3 V 913.7 L 4148,911 c 0.8,-52.7 1.5,-27.2 0,-68.8 147.5,-2 377.4,-1 754.5,0 l 687,2.7 3,172 1.7,171 h -50.4 c -27.6,0 -50.5,-5 -50.5,-10 0,-24 -42.2,-96 -77,-130 -77,-79 -212,-120 -425.7,-133 l -112,-7 v 449 c 0,338 2.8,454 12,471 21,42 72.4,59 197.2,62 l 112.8,4 -2.7,39 -3,37.2 -572,3 c -487,2 -572,0 -576,-11 z"
       fill="#c9d9e2"
       id="path139"
       style="fill:#e0e0e0;fill-opacity:1" /></g></svg>
